<svg width="320" height="320" viewBox="0 0 320 320" fill="none" xmlns="http://www.w3.org/2000/svg">
<path d="M151.125 0.0010364C122.763 0.0010364 96.2106 7.91636 73.5118 21.5383C67.0394 16.276 58.9068 13.3468 50.4446 13.3446C50.4434 13.3446 50.4422 13.3446 50.4411 13.3446C30.2868 13.3453 13.7619 29.8724 13.7626 50.0267C13.7626 50.0302 13.7626 50.0337 13.7626 50.0372C13.7725 58.452 16.6893 66.5207 21.8659 72.9644C8.04107 95.7837 0.000549186 122.536 0.000549186 151.126C-0.0138092 152.286 0.202309 153.437 0.636372 154.513C1.07044 155.589 1.71381 156.569 2.52918 157.394C3.34455 158.22 4.31569 158.875 5.3863 159.323C6.45691 159.77 7.60567 160 8.76598 160C9.92629 160 11.0751 159.77 12.1457 159.323C13.2163 158.875 14.1874 158.22 15.0028 157.394C15.8182 156.569 16.4615 155.589 16.8956 154.513C17.3297 153.437 17.5458 152.286 17.5314 151.126C17.5314 126.423 24.2507 103.377 35.9097 83.5514C40.476 85.5359 45.3824 86.701 50.4286 86.7087C50.4327 86.7087 50.4369 86.7087 50.441 86.7087C70.5963 86.7094 87.1237 70.1819 87.1231 50.0267C87.1231 50.0253 87.1231 50.024 87.1231 50.0226C87.1215 45.0233 85.9843 40.1599 84.0402 35.626C103.757 24.1425 126.626 17.5315 151.125 17.5315C152.285 17.5458 153.437 17.3298 154.513 16.8957C155.589 16.4616 156.568 15.8182 157.394 15.0029C158.219 14.1875 158.875 13.2164 159.322 12.1458C159.769 11.0751 160 9.92641 160 8.76611C160 7.60581 159.769 6.45701 159.322 5.38641C158.875 4.31581 158.219 3.34467 157.394 2.5293C156.568 1.71393 155.589 1.07054 154.513 0.636473C153.437 0.202404 152.285 -0.013309 151.125 0.0010364ZM50.4392 30.8755C56.3521 30.8775 61.6304 33.3876 65.2755 37.9523C65.3352 38.0248 65.3961 38.0963 65.4581 38.1669C68.1296 41.5467 69.5908 45.72 69.5922 50.0302C69.5907 60.7068 61.1242 69.1744 50.4481 69.1779C46.0781 69.1699 41.847 67.6691 38.4483 64.9232C38.4441 64.9202 38.44 64.9172 38.4359 64.9142C33.9218 61.2811 31.3001 55.8163 31.2916 50.0212C31.2941 39.3442 39.7617 30.8768 50.4392 30.8755Z" fill="white"/>
<path fill-rule="evenodd" clip-rule="evenodd" d="M66.9924 102.829C65.5004 104.388 64.6261 106.54 64.7348 108.901C64.831 110.945 65.648 112.921 67.072 114.418C73.8771 121.274 87.2953 134.642 87.2953 134.642L99.1397 122.812C99.1397 122.812 86.1667 109.851 78.9637 102.641C77.3597 101.009 75.2139 100.327 72.9516 100.317C70.5933 100.306 68.4844 101.271 66.9924 102.829ZM99.1397 122.812L62.5003 159.451C58.5252 163.427 58.5252 169.873 62.5003 173.849L80.6566 192.005L112.41 223.758L142.887 254.236C146.863 258.212 153.309 258.212 157.285 254.236L182.077 229.444L219.991 191.53L256.63 154.891C260.606 150.915 260.605 144.468 256.63 140.493L238 121.864L206.247 90.1111L176.242 60.1066C172.267 56.1315 165.821 56.1315 161.845 60.1066L137.054 84.8979L99.1397 122.812ZM137.054 84.8979C137.054 84.8979 124.081 71.9368 116.878 64.7274C115.274 63.0949 113.128 62.4133 110.866 62.4031C106.149 62.3805 102.432 66.2647 102.649 70.9865C102.745 73.0312 103.562 75.007 104.986 76.5042C111.791 83.3601 125.209 96.7275 125.209 96.7275L137.054 84.8979ZM206.247 90.1111C206.247 90.1111 219.208 77.138 226.418 69.935C228.05 68.331 228.732 66.1853 228.742 63.923C228.764 59.2064 224.88 55.4888 220.158 55.7061C218.114 55.8023 216.138 56.6193 214.641 58.0434C207.785 64.8485 194.417 78.2666 194.417 78.2666L206.247 90.1111ZM238 121.864C238 121.864 250.961 108.891 258.171 101.688C259.803 100.084 260.485 97.9382 260.495 95.676C260.517 90.9593 256.633 87.2419 251.911 87.4591C249.867 87.5553 247.891 88.3724 246.394 89.7964C239.538 96.6015 226.17 110.02 226.17 110.02L238 121.864ZM219.991 191.53C219.991 191.53 232.964 204.492 240.169 211.7C241.773 213.332 243.919 214.014 246.181 214.024C250.897 214.047 254.615 210.163 254.398 205.441L254.396 205.443C254.299 203.398 253.482 201.421 252.058 199.924C245.252 193.068 231.835 179.702 231.835 179.702L219.991 191.53ZM182.077 229.444C182.077 229.444 195.05 242.406 202.255 249.614C203.859 251.246 206.005 251.928 208.267 251.938C212.983 251.961 216.701 248.077 216.484 243.355H216.482C216.385 241.31 215.568 239.334 214.144 237.837C207.339 230.981 193.921 217.614 193.921 217.614L182.077 229.444ZM112.41 223.758C112.41 223.758 99.4486 236.731 92.241 243.936C90.6085 245.54 89.9269 247.686 89.9167 249.948C89.8942 254.665 93.7782 258.382 98.5001 258.165H98.4982C100.543 258.069 102.519 257.252 104.016 255.828C110.872 249.023 124.239 235.605 124.239 235.605L112.41 223.758ZM80.6566 192.005C80.6566 192.005 67.6956 204.978 60.4879 212.183C58.8555 213.787 58.1739 215.933 58.1637 218.195C58.1412 222.912 62.0252 226.629 66.7471 226.412H66.7452C68.7899 226.316 70.7656 225.499 72.2629 224.075C79.119 217.27 92.4863 203.852 92.4863 203.852L80.6566 192.005ZM167.893 101.451C169.573 99.7447 171.86 98.7911 174.19 98.825C175.853 98.8487 177.443 99.3752 178.753 100.335L195.251 112.435C198.452 114.732 199.396 119.094 197.482 122.746C195.568 126.399 191.359 128.271 187.532 127.169L193.656 151.117C194.768 155.469 192.092 160.085 187.672 161.434L143.031 175.065L151.276 206.948C152.449 211.317 149.775 215.992 145.322 217.355C140.869 218.717 136.346 216.244 135.253 211.85L124.971 172.081C123.845 167.725 126.521 163.096 130.947 161.743L175.608 148.106L171.487 131.988C168.723 135.052 164.253 135.796 160.9 133.749C157.547 131.702 156.286 127.46 157.914 123.702L166.031 104.248C166.464 103.211 167.098 102.26 167.893 101.451Z" fill="white"/>
<path d="M168.873 320C197.236 320 223.788 312.085 246.487 298.463C252.959 303.725 261.092 306.654 269.554 306.656C269.556 306.656 269.557 306.656 269.558 306.656C289.713 306.656 306.238 290.128 306.237 269.974C306.237 269.97 306.237 269.967 306.237 269.963C306.227 261.548 303.311 253.479 298.134 247.036C311.959 224.216 320 197.463 320 168.873C320.014 167.713 319.798 166.562 319.364 165.486C318.93 164.41 318.286 163.43 317.471 162.605C316.655 161.779 315.684 161.124 314.614 160.677C313.543 160.229 312.394 159.999 311.234 159.999C310.074 159.999 308.925 160.229 307.854 160.677C306.784 161.124 305.813 161.779 304.997 162.605C304.182 163.43 303.538 164.41 303.104 165.486C302.67 166.562 302.454 167.713 302.468 168.873C302.468 193.576 295.749 216.622 284.09 236.448C279.524 234.464 274.617 233.299 269.571 233.291C269.567 233.291 269.563 233.291 269.559 233.291C249.403 233.29 232.875 249.818 232.876 269.974C232.878 274.973 234.015 279.836 235.959 284.37C216.242 295.854 193.373 302.465 168.873 302.465C167.713 302.451 166.562 302.667 165.486 303.101C164.41 303.535 163.431 304.179 162.605 304.994C161.78 305.81 161.125 306.781 160.677 307.851C160.23 308.922 160 310.07 160 311.231C160 312.391 160.23 313.539 160.677 314.61C161.125 315.681 161.78 316.652 162.605 317.467C163.431 318.282 164.41 318.926 165.486 319.36C166.562 319.794 167.713 320.01 168.873 319.996L168.873 320ZM269.56 289.125C263.647 289.125 258.369 286.613 254.723 282.048C254.664 281.976 254.603 281.904 254.541 281.834C251.869 278.454 250.408 274.281 250.407 269.97C250.409 259.294 258.875 250.826 269.551 250.823C273.921 250.831 278.152 252.331 281.551 255.077C281.555 255.08 281.559 255.083 281.563 255.086C286.077 258.719 288.699 264.184 288.708 269.979C288.705 280.657 280.237 289.124 269.56 289.125Z" fill="white"/>
<rect x="79" y="163.044" width="122.666" height="105.086" rx="9" transform="rotate(-45.2027 79 163.044)" fill="white"/>
<path d="M170.169 201.373L156.806 160.912L117.756 148.064L129.868 136.078L152.905 144.345L144.625 121.476L156.225 109.997L169.516 148.166L210.516 161.45L198.062 173.773L173.669 165.159L182.282 189.388L170.169 201.373Z" fill="#4F6F52"/>
</svg>
