<svg width="484" height="222" viewBox="0 0 484 222" fill="none" xmlns="http://www.w3.org/2000/svg">
<mask id="path-1-outside-1_80_2" maskUnits="userSpaceOnUse" x="0" y="48" width="103" height="153" fill="black">
<rect fill="white" y="48" width="103" height="153"/>
<path d="M91.2172 78.7C90.4172 80.1 89.5505 81.1333 88.6172 81.8C87.7505 82.4 86.6505 82.7 85.3172 82.7C83.9172 82.7 82.3839 82.2 80.7172 81.2C79.1172 80.1333 77.1839 78.9667 74.9172 77.7C72.6505 76.4333 69.9839 75.3 66.9172 74.3C63.9172 73.2333 60.3505 72.7 56.2172 72.7C52.4839 72.7 49.2172 73.1667 46.4172 74.1C43.6172 74.9667 41.2505 76.2 39.3172 77.8C37.4505 79.4 36.0505 81.3333 35.1172 83.6C34.1839 85.8 33.7172 88.2333 33.7172 90.9C33.7172 94.3 34.6505 97.1333 36.5172 99.4C38.4505 101.667 40.9839 103.6 44.1172 105.2C47.2505 106.8 50.8172 108.233 54.8172 109.5C58.8172 110.767 62.9172 112.133 67.1172 113.6C71.3172 115 75.4172 116.667 79.4172 118.6C83.4172 120.467 86.9839 122.867 90.1172 125.8C93.2505 128.667 95.7505 132.2 97.6172 136.4C99.5505 140.6 100.517 145.7 100.517 151.7C100.517 158.233 99.3839 164.367 97.1172 170.1C94.9172 175.767 91.6505 180.733 87.3172 185C83.0505 189.2 77.8172 192.533 71.6172 195C65.4172 197.4 58.3172 198.6 50.3172 198.6C45.7172 198.6 41.1839 198.133 36.7172 197.2C32.2505 196.333 27.9505 195.067 23.8172 193.4C19.7505 191.733 15.9172 189.733 12.3172 187.4C8.71719 185.067 5.51719 182.467 2.71719 179.6L10.6172 166.7C11.2839 165.767 12.1505 165 13.2172 164.4C14.2839 163.733 15.4172 163.4 16.6172 163.4C18.2839 163.4 20.0839 164.1 22.0172 165.5C23.9505 166.833 26.2505 168.333 28.9172 170C31.5839 171.667 34.6839 173.2 38.2172 174.6C41.8172 175.933 46.1172 176.6 51.1172 176.6C58.7839 176.6 64.7172 174.8 68.9172 171.2C73.1172 167.533 75.2172 162.3 75.2172 155.5C75.2172 151.7 74.2505 148.6 72.3172 146.2C70.4505 143.8 67.9505 141.8 64.8172 140.2C61.6839 138.533 58.1172 137.133 54.1172 136C50.1172 134.867 46.0505 133.633 41.9172 132.3C37.7839 130.967 33.7172 129.367 29.7172 127.5C25.7172 125.633 22.1505 123.2 19.0172 120.2C15.8839 117.2 13.3505 113.467 11.4172 109C9.55052 104.467 8.61719 98.9 8.61719 92.3C8.61719 87.0333 9.65052 81.9 11.7172 76.9C13.8505 71.9 16.9172 67.4667 20.9172 63.6C24.9172 59.7333 29.8505 56.6333 35.7172 54.3C41.5839 51.9667 48.3172 50.8 55.9172 50.8C64.4505 50.8 72.3172 52.1333 79.5172 54.8C86.7172 57.4667 92.8505 61.2 97.9172 66L91.2172 78.7Z"/>
</mask>
<path d="M91.2172 78.7C90.4172 80.1 89.5505 81.1333 88.6172 81.8C87.7505 82.4 86.6505 82.7 85.3172 82.7C83.9172 82.7 82.3839 82.2 80.7172 81.2C79.1172 80.1333 77.1839 78.9667 74.9172 77.7C72.6505 76.4333 69.9839 75.3 66.9172 74.3C63.9172 73.2333 60.3505 72.7 56.2172 72.7C52.4839 72.7 49.2172 73.1667 46.4172 74.1C43.6172 74.9667 41.2505 76.2 39.3172 77.8C37.4505 79.4 36.0505 81.3333 35.1172 83.6C34.1839 85.8 33.7172 88.2333 33.7172 90.9C33.7172 94.3 34.6505 97.1333 36.5172 99.4C38.4505 101.667 40.9839 103.6 44.1172 105.2C47.2505 106.8 50.8172 108.233 54.8172 109.5C58.8172 110.767 62.9172 112.133 67.1172 113.6C71.3172 115 75.4172 116.667 79.4172 118.6C83.4172 120.467 86.9839 122.867 90.1172 125.8C93.2505 128.667 95.7505 132.2 97.6172 136.4C99.5505 140.6 100.517 145.7 100.517 151.7C100.517 158.233 99.3839 164.367 97.1172 170.1C94.9172 175.767 91.6505 180.733 87.3172 185C83.0505 189.2 77.8172 192.533 71.6172 195C65.4172 197.4 58.3172 198.6 50.3172 198.6C45.7172 198.6 41.1839 198.133 36.7172 197.2C32.2505 196.333 27.9505 195.067 23.8172 193.4C19.7505 191.733 15.9172 189.733 12.3172 187.4C8.71719 185.067 5.51719 182.467 2.71719 179.6L10.6172 166.7C11.2839 165.767 12.1505 165 13.2172 164.4C14.2839 163.733 15.4172 163.4 16.6172 163.4C18.2839 163.4 20.0839 164.1 22.0172 165.5C23.9505 166.833 26.2505 168.333 28.9172 170C31.5839 171.667 34.6839 173.2 38.2172 174.6C41.8172 175.933 46.1172 176.6 51.1172 176.6C58.7839 176.6 64.7172 174.8 68.9172 171.2C73.1172 167.533 75.2172 162.3 75.2172 155.5C75.2172 151.7 74.2505 148.6 72.3172 146.2C70.4505 143.8 67.9505 141.8 64.8172 140.2C61.6839 138.533 58.1172 137.133 54.1172 136C50.1172 134.867 46.0505 133.633 41.9172 132.3C37.7839 130.967 33.7172 129.367 29.7172 127.5C25.7172 125.633 22.1505 123.2 19.0172 120.2C15.8839 117.2 13.3505 113.467 11.4172 109C9.55052 104.467 8.61719 98.9 8.61719 92.3C8.61719 87.0333 9.65052 81.9 11.7172 76.9C13.8505 71.9 16.9172 67.4667 20.9172 63.6C24.9172 59.7333 29.8505 56.6333 35.7172 54.3C41.5839 51.9667 48.3172 50.8 55.9172 50.8C64.4505 50.8 72.3172 52.1333 79.5172 54.8C86.7172 57.4667 92.8505 61.2 97.9172 66L91.2172 78.7Z" fill="white"/>
<path d="M91.2172 78.7L92.9537 79.6923L92.9704 79.663L92.9861 79.6332L91.2172 78.7ZM88.6172 81.8L89.7556 83.4444L89.7677 83.436L89.7797 83.4275L88.6172 81.8ZM80.7172 81.2L79.6078 82.8641L79.6474 82.8905L79.6882 82.915L80.7172 81.2ZM74.9172 77.7L75.8928 75.9541L75.8928 75.9541L74.9172 77.7ZM66.9172 74.3L66.2472 76.1844L66.272 76.1933L66.2971 76.2014L66.9172 74.3ZM46.4172 74.1L47.0086 76.0106L47.0292 76.0042L47.0496 75.9974L46.4172 74.1ZM39.3172 77.8L38.0421 76.2592L38.0287 76.2702L38.0156 76.2815L39.3172 77.8ZM35.1172 83.6L36.9584 84.3811L36.9625 84.3713L36.9665 84.3615L35.1172 83.6ZM36.5172 99.4L34.9733 100.671L34.9843 100.685L34.9955 100.698L36.5172 99.4ZM44.1172 105.2L43.2076 106.981L43.2076 106.981L44.1172 105.2ZM67.1172 113.6L66.4578 115.488L66.4712 115.493L66.4847 115.497L67.1172 113.6ZM79.4172 118.6L78.5469 120.401L78.5591 120.407L78.5714 120.412L79.4172 118.6ZM90.1172 125.8L88.7503 127.26L88.7587 127.268L88.7672 127.276L90.1172 125.8ZM97.6172 136.4L95.7896 137.212L95.7949 137.224L95.8004 137.236L97.6172 136.4ZM97.1172 170.1L95.2572 169.365L95.2528 169.376L97.1172 170.1ZM87.3172 185L88.7202 186.425L88.7204 186.425L87.3172 185ZM71.6172 195L72.3392 196.865L72.3479 196.862L72.3565 196.858L71.6172 195ZM36.7172 197.2L37.1263 195.242L37.1122 195.239L37.0981 195.237L36.7172 197.2ZM23.8172 193.4L23.0587 195.251L23.0693 195.255L23.8172 193.4ZM12.3172 187.4L11.2294 189.078L11.2294 189.078L12.3172 187.4ZM2.71719 179.6L1.01161 178.555L0.198344 179.883L1.28644 180.997L2.71719 179.6ZM10.6172 166.7L8.98972 165.538L8.94858 165.595L8.91161 165.655L10.6172 166.7ZM13.2172 164.4L14.1977 166.143L14.238 166.12L14.2772 166.096L13.2172 164.4ZM22.0172 165.5L20.8442 167.12L20.8628 167.133L20.8817 167.146L22.0172 165.5ZM28.9172 170L29.9772 168.304L29.9772 168.304L28.9172 170ZM38.2172 174.6L37.4805 176.459L37.5014 176.468L37.5226 176.475L38.2172 174.6ZM68.9172 171.2L70.2188 172.719L70.2257 172.713L70.2325 172.707L68.9172 171.2ZM72.3172 146.2L70.7385 147.428L70.749 147.441L70.7597 147.455L72.3172 146.2ZM64.8172 140.2L63.878 141.966L63.8927 141.974L63.9076 141.981L64.8172 140.2ZM54.1172 136L53.572 137.924L53.572 137.924L54.1172 136ZM41.9172 132.3L41.3032 134.203L41.3032 134.203L41.9172 132.3ZM29.7172 127.5L28.8714 129.312L29.7172 127.5ZM19.0172 120.2L17.634 121.645L17.634 121.645L19.0172 120.2ZM11.4172 109L9.56783 109.761L9.57464 109.778L9.58174 109.794L11.4172 109ZM11.7172 76.9L9.87763 76.1151L9.87318 76.1255L9.86885 76.136L11.7172 76.9ZM20.9172 63.6L19.5271 62.162L19.5271 62.162L20.9172 63.6ZM79.5172 54.8L78.8226 56.6755L78.8226 56.6755L79.5172 54.8ZM97.9172 66L99.6861 66.9332L100.394 65.5914L99.2927 64.5481L97.9172 66ZM89.4807 77.7077C88.7697 78.952 88.078 79.7273 87.4547 80.1725L89.7797 83.4275C91.0231 82.5393 92.0647 81.248 92.9537 79.6923L89.4807 77.7077ZM87.4788 80.1556C87.0255 80.4694 86.3517 80.7 85.3172 80.7V84.7C86.9494 84.7 88.4755 84.3306 89.7556 83.4444L87.4788 80.1556ZM85.3172 80.7C84.3941 80.7 83.2174 80.3678 81.7462 79.485L79.6882 82.915C81.5503 84.0322 83.4403 84.7 85.3172 84.7V80.7ZM81.8266 79.5359C80.1711 78.4322 78.1905 77.2381 75.8928 75.9541L73.9415 79.4459C76.1772 80.6952 78.0633 81.8344 79.6078 82.8641L81.8266 79.5359ZM75.8928 75.9541C73.4897 74.6112 70.6989 73.4295 67.5372 72.3985L66.2971 76.2014C69.2688 77.1705 71.8114 78.2555 73.9415 79.4459L75.8928 75.9541ZM67.5872 72.4156C64.3188 71.2534 60.5144 70.7 56.2172 70.7V74.7C60.1867 74.7 63.5156 75.2132 66.2472 76.1844L67.5872 72.4156ZM56.2172 70.7C52.3232 70.7 48.8345 71.1861 45.7847 72.2026L47.0496 75.9974C49.5999 75.1473 52.6446 74.7 56.2172 74.7V70.7ZM45.8258 72.1894C42.8173 73.1206 40.2078 74.4668 38.0421 76.2592L40.5923 79.3408C42.2932 77.9331 44.4171 76.8127 47.0086 76.0106L45.8258 72.1894ZM38.0156 76.2815C35.9099 78.0864 34.3218 80.2789 33.2678 82.8385L36.9665 84.3615C37.7793 82.3878 38.9912 80.7136 40.6188 79.3185L38.0156 76.2815ZM33.276 82.8189C32.2264 85.2931 31.7172 87.9961 31.7172 90.9H35.7172C35.7172 88.4706 36.1413 86.3069 36.9584 84.3811L33.276 82.8189ZM31.7172 90.9C31.7172 94.6868 32.7662 97.9914 34.9733 100.671L38.061 98.1286C36.5348 96.2753 35.7172 93.9132 35.7172 90.9H31.7172ZM34.9955 100.698C37.1271 103.197 39.8821 105.283 43.2076 106.981L45.0267 103.419C42.0856 101.917 39.774 100.136 38.0389 98.1021L34.9955 100.698ZM43.2076 106.981C46.4558 108.64 50.1276 110.113 54.2134 111.407L55.421 107.593C51.5068 106.354 48.0452 104.96 45.0267 103.419L43.2076 106.981ZM54.2134 111.407C58.1937 112.667 62.2752 114.028 66.4578 115.488L67.7766 111.712C63.5592 110.239 59.4407 108.866 55.421 107.593L54.2134 111.407ZM66.4847 115.497C70.6032 116.87 74.6237 118.505 78.5469 120.401L80.2875 116.799C76.2107 114.829 72.0312 113.13 67.7496 111.703L66.4847 115.497ZM78.5714 120.412C82.3857 122.192 85.7754 124.475 88.7503 127.26L91.484 124.34C88.1923 121.258 84.4487 118.741 80.263 116.788L78.5714 120.412ZM88.7672 127.276C91.6811 129.942 94.0254 133.243 95.7896 137.212L99.4448 135.588C97.4756 131.157 94.82 127.392 91.4672 124.324L88.7672 127.276ZM95.8004 137.236C97.5827 141.108 98.5172 145.906 98.5172 151.7H102.517C102.517 145.494 101.518 140.092 99.434 135.564L95.8004 137.236ZM98.5172 151.7C98.5172 157.997 97.426 163.879 95.2573 169.365L98.9771 170.835C101.342 164.854 102.517 158.47 102.517 151.7H98.5172ZM95.2528 169.376C93.1552 174.779 90.0458 179.507 85.914 183.575L88.7204 186.425C93.2553 181.96 96.6792 176.754 98.9816 170.824L95.2528 169.376ZM85.9142 183.575C81.8583 187.567 76.8584 190.762 70.8779 193.142L72.3565 196.858C78.776 194.304 84.2428 190.833 88.7202 186.425L85.9142 183.575ZM70.8952 193.135C64.9671 195.43 58.1192 196.6 50.3172 196.6V200.6C58.5152 200.6 65.8673 199.37 72.3392 196.865L70.8952 193.135ZM50.3172 196.6C45.8535 196.6 41.4573 196.147 37.1263 195.242L36.3081 199.158C40.9104 200.119 45.5809 200.6 50.3172 200.6V196.6ZM37.0981 195.237C32.7544 194.394 28.5774 193.163 24.5651 191.545L23.0693 195.255C27.3236 196.97 31.7467 198.273 36.3362 199.163L37.0981 195.237ZM24.5756 191.549C20.621 189.929 16.8983 187.986 13.405 185.722L11.2294 189.078C14.9361 191.481 18.88 193.538 23.0587 195.251L24.5756 191.549ZM13.405 185.722C9.92065 183.463 6.83737 180.956 4.14794 178.203L1.28644 180.997C4.197 183.977 7.51373 186.67 11.2294 189.078L13.405 185.722ZM4.42277 180.645L12.3228 167.745L8.91161 165.655L1.01161 178.555L4.42277 180.645ZM12.2447 167.862C12.7296 167.184 13.3692 166.609 14.1977 166.143L12.2367 162.657C10.9319 163.391 9.83813 164.35 8.98972 165.538L12.2447 167.862ZM14.2772 166.096C15.0421 165.618 15.8105 165.4 16.6172 165.4V161.4C15.0238 161.4 13.5256 161.849 12.1572 162.704L14.2772 166.096ZM16.6172 165.4C17.7157 165.4 19.1099 165.864 20.8442 167.12L23.1902 163.88C21.0578 162.336 18.852 161.4 16.6172 161.4V165.4ZM20.8817 167.146C22.8465 168.501 25.1729 170.018 27.8572 171.696L29.9772 168.304C27.3281 166.648 25.0545 165.165 23.1527 163.854L20.8817 167.146ZM27.8572 171.696C30.645 173.438 33.857 175.024 37.4805 176.459L38.9539 172.741C35.5107 171.376 32.5227 169.895 29.9772 168.304L27.8572 171.696ZM37.5226 176.475C41.4008 177.912 45.948 178.6 51.1172 178.6V174.6C46.2863 174.6 42.2336 173.955 38.9118 172.725L37.5226 176.475ZM51.1172 178.6C59.0777 178.6 65.5378 176.731 70.2188 172.719L67.6156 169.681C63.8966 172.869 58.49 174.6 51.1172 174.6V178.6ZM70.2325 172.707C74.9618 168.578 77.2172 162.739 77.2172 155.5H73.2172C73.2172 161.861 71.2726 166.489 67.6019 169.693L70.2325 172.707ZM77.2172 155.5C77.2172 151.353 76.1562 147.778 73.8747 144.945L70.7597 147.455C72.3448 149.422 73.2172 152.047 73.2172 155.5H77.2172ZM73.8959 144.972C71.8232 142.307 69.0801 140.131 65.7267 138.419L63.9076 141.981C66.8209 143.469 69.0778 145.293 70.7385 147.428L73.8959 144.972ZM65.7564 138.434C62.4786 136.691 58.7764 135.241 54.6624 134.076L53.572 137.924C57.458 139.025 60.8891 140.376 63.878 141.966L65.7564 138.434ZM54.6624 134.076C50.6864 132.949 46.6427 131.723 42.5312 130.397L41.3032 134.203C45.4583 135.544 49.5479 136.784 53.572 137.924L54.6624 134.076ZM42.5312 130.397C38.4782 129.089 34.4889 127.52 30.563 125.688L28.8714 129.312C32.9455 131.214 37.0895 132.844 41.3032 134.203L42.5312 130.397ZM30.563 125.688C26.7574 123.912 23.373 121.602 20.4003 118.755L17.634 121.645C20.928 124.798 24.6769 127.355 28.8714 129.312L30.563 125.688ZM20.4003 118.755C17.4818 115.961 15.093 112.457 13.2526 108.206L9.58174 109.794C11.6081 114.476 14.2859 118.439 17.634 121.645L20.4003 118.755ZM13.2665 108.238C11.5273 104.015 10.6172 98.7239 10.6172 92.3H6.61719C6.61719 99.0761 7.57373 104.919 9.56783 109.761L13.2665 108.238ZM10.6172 92.3C10.6172 87.3027 11.5962 82.4285 13.5655 77.664L9.86885 76.136C7.70485 81.3715 6.61719 86.764 6.61719 92.3H10.6172ZM13.5567 77.6849C15.5828 72.9362 18.4945 68.7236 22.3072 65.038L19.5271 62.162C15.3398 66.2098 12.1182 70.8638 9.87763 76.1151L13.5567 77.6849ZM22.3072 65.038C26.0961 61.3754 30.7995 58.4083 36.4563 56.1584L34.9781 52.4416C28.9016 54.8584 23.7382 58.0913 19.5271 62.162L22.3072 65.038ZM36.4563 56.1584C42.0452 53.9356 48.52 52.8 55.9172 52.8V48.8C48.1144 48.8 41.1225 49.9978 34.9781 52.4416L36.4563 56.1584ZM55.9172 52.8C64.2397 52.8 71.8683 54.0998 78.8226 56.6755L80.2118 52.9245C72.7661 50.1668 64.6613 48.8 55.9172 48.8V52.8ZM78.8226 56.6755C85.7948 59.2578 91.6899 62.8554 96.5417 67.4519L99.2927 64.5481C94.0112 59.5446 87.6396 55.6755 80.2118 52.9245L78.8226 56.6755ZM96.1483 65.0668L89.4483 77.7668L92.9861 79.6332L99.6861 66.9332L96.1483 65.0668Z" fill="white" mask="url(#path-1-outside-1_80_2)"/>
<mask id="path-3-outside-2_80_2" maskUnits="userSpaceOnUse" x="110" y="45" width="68" height="62" fill="black">
<rect fill="white" x="110" y="45" width="68" height="62"/>
<path d="M175.348 47.16V105H165.868V67.64C165.868 66.1467 165.948 64.5333 166.108 62.8L148.628 95.64C147.801 97.2133 146.534 98 144.828 98H143.308C141.601 98 140.334 97.2133 139.508 95.64L121.828 62.68C121.908 63.56 121.974 64.4267 122.028 65.28C122.081 66.1333 122.108 66.92 122.108 67.64V105H112.628V47.16H120.748C121.228 47.16 121.641 47.1733 121.988 47.2C122.334 47.2267 122.641 47.2933 122.908 47.4C123.201 47.5067 123.454 47.68 123.668 47.92C123.908 48.16 124.134 48.48 124.348 48.88L141.668 81C142.121 81.8533 142.534 82.7333 142.908 83.64C143.308 84.5467 143.694 85.48 144.068 86.44C144.441 85.4533 144.828 84.5067 145.228 83.6C145.628 82.6667 146.054 81.7733 146.508 80.92L163.588 48.88C163.801 48.48 164.028 48.16 164.268 47.92C164.508 47.68 164.761 47.5067 165.028 47.4C165.321 47.2933 165.641 47.2267 165.988 47.2C166.334 47.1733 166.748 47.16 167.228 47.16H175.348Z"/>
</mask>
<path d="M175.348 47.16V105H165.868V67.64C165.868 66.1467 165.948 64.5333 166.108 62.8L148.628 95.64C147.801 97.2133 146.534 98 144.828 98H143.308C141.601 98 140.334 97.2133 139.508 95.64L121.828 62.68C121.908 63.56 121.974 64.4267 122.028 65.28C122.081 66.1333 122.108 66.92 122.108 67.64V105H112.628V47.16H120.748C121.228 47.16 121.641 47.1733 121.988 47.2C122.334 47.2267 122.641 47.2933 122.908 47.4C123.201 47.5067 123.454 47.68 123.668 47.92C123.908 48.16 124.134 48.48 124.348 48.88L141.668 81C142.121 81.8533 142.534 82.7333 142.908 83.64C143.308 84.5467 143.694 85.48 144.068 86.44C144.441 85.4533 144.828 84.5067 145.228 83.6C145.628 82.6667 146.054 81.7733 146.508 80.92L163.588 48.88C163.801 48.48 164.028 48.16 164.268 47.92C164.508 47.68 164.761 47.5067 165.028 47.4C165.321 47.2933 165.641 47.2267 165.988 47.2C166.334 47.1733 166.748 47.16 167.228 47.16H175.348Z" fill="white"/>
<path d="M175.348 47.16H177.348V45.16H175.348V47.16ZM175.348 105V107H177.348V105H175.348ZM165.868 105H163.868V107H165.868V105ZM166.108 62.8L168.099 62.9838L164.342 61.8603L166.108 62.8ZM148.628 95.64L146.862 94.7003L146.857 94.7097L148.628 95.64ZM139.508 95.64L141.278 94.7097L141.274 94.7022L141.27 94.6946L139.508 95.64ZM121.828 62.68L123.59 61.7346L119.836 62.8611L121.828 62.68ZM122.028 65.28L120.031 65.4048L120.031 65.4048L122.028 65.28ZM122.108 105V107H124.108V105H122.108ZM112.628 105H110.628V107H112.628V105ZM112.628 47.16V45.16H110.628V47.16H112.628ZM121.988 47.2L121.834 49.1941L121.834 49.1941L121.988 47.2ZM122.908 47.4L122.165 49.2569L122.194 49.2687L122.224 49.2796L122.908 47.4ZM123.668 47.92L122.173 49.2487L122.212 49.2927L122.253 49.3342L123.668 47.92ZM124.348 48.88L122.583 49.8212L122.587 49.8292L124.348 48.88ZM141.668 81L143.434 80.0617L143.428 80.0508L141.668 81ZM142.908 83.64L141.058 84.4015L141.068 84.4245L141.078 84.4473L142.908 83.64ZM144.068 86.44L142.203 87.1649L144.093 92.0238L145.938 87.1478L144.068 86.44ZM145.228 83.6L147.057 84.4073L147.062 84.3976L147.066 84.3878L145.228 83.6ZM146.508 80.92L144.743 79.9792L144.741 79.9817L146.508 80.92ZM163.588 48.88L161.823 47.9388L161.823 47.9392L163.588 48.88ZM165.028 47.4L164.344 45.5204L164.314 45.5313L164.285 45.543L165.028 47.4ZM165.988 47.2L166.141 49.1941L166.141 49.1941L165.988 47.2ZM173.348 47.16V105H177.348V47.16H173.348ZM175.348 103H165.868V107H175.348V103ZM167.868 105V67.64H163.868V105H167.868ZM167.868 67.64C167.868 66.2171 167.944 64.6658 168.099 62.9838L164.116 62.6162C163.951 64.4009 163.868 66.0762 163.868 67.64H167.868ZM164.342 61.8603L146.862 94.7003L150.393 96.5797L167.873 63.7397L164.342 61.8603ZM146.857 94.7097C146.577 95.2418 146.28 95.5388 146.002 95.711C145.73 95.8804 145.363 96 144.828 96V100C145.999 100 147.119 99.7263 148.113 99.109C149.102 98.4945 149.851 97.6115 150.398 96.5703L146.857 94.7097ZM144.828 96H143.308V100H144.828V96ZM143.308 96C142.772 96 142.405 95.8804 142.133 95.711C141.855 95.5388 141.558 95.2418 141.278 94.7097L137.737 96.5703C138.284 97.6115 139.033 98.4945 140.022 99.109C141.016 99.7263 142.136 100 143.308 100V96ZM141.27 94.6946L123.59 61.7346L120.065 63.6254L137.745 96.5854L141.27 94.6946ZM119.836 62.8611C119.914 63.7229 119.979 64.5708 120.031 65.4048L124.024 65.1552C123.969 64.2825 123.901 63.3971 123.819 62.4989L119.836 62.8611ZM120.031 65.4048C120.083 66.224 120.108 66.9684 120.108 67.64H124.108C124.108 66.8715 124.079 66.0427 124.024 65.1552L120.031 65.4048ZM120.108 67.64V105H124.108V67.64H120.108ZM122.108 103H112.628V107H122.108V103ZM114.628 105V47.16H110.628V105H114.628ZM112.628 49.16H120.748V45.16H112.628V49.16ZM120.748 49.16C121.194 49.16 121.554 49.1725 121.834 49.1941L122.141 45.2059C121.728 45.1741 121.261 45.16 120.748 45.16V49.16ZM121.834 49.1941C122.02 49.2084 122.121 49.2395 122.165 49.2569L123.65 45.543C123.16 45.3471 122.649 45.245 122.141 45.2059L121.834 49.1941ZM122.224 49.2796C122.216 49.2766 122.202 49.2703 122.188 49.2606C122.174 49.2511 122.169 49.2449 122.173 49.2487L125.162 46.5913C124.735 46.1106 124.205 45.7439 123.591 45.5204L122.224 49.2796ZM122.253 49.3342C122.316 49.3969 122.433 49.5408 122.583 49.8212L126.112 47.9388C125.835 47.4192 125.499 46.9231 125.082 46.5058L122.253 49.3342ZM122.587 49.8292L139.907 81.9492L143.428 80.0508L126.108 47.9308L122.587 49.8292ZM139.901 81.9383C140.324 82.7333 140.709 83.5542 141.058 84.4015L144.757 82.8785C144.359 81.9125 143.918 80.9734 143.434 80.0617L139.901 81.9383ZM141.078 84.4473C141.465 85.3257 141.841 86.2315 142.203 87.1649L145.932 85.7151C145.548 84.7285 145.15 83.7676 144.737 82.8327L141.078 84.4473ZM145.938 87.1478C146.3 86.1925 146.673 85.2791 147.057 84.4073L143.398 82.7927C142.982 83.7342 142.582 84.7142 142.197 85.7322L145.938 87.1478ZM147.066 84.3878C147.445 83.5031 147.848 82.6601 148.274 81.8583L144.741 79.9817C144.261 80.8866 143.81 81.8303 143.389 82.8122L147.066 84.3878ZM148.272 81.8608L165.352 49.8208L161.823 47.9392L144.743 79.9792L148.272 81.8608ZM165.352 49.8212C165.502 49.5408 165.619 49.3969 165.682 49.3342L162.853 46.5058C162.436 46.9231 162.1 47.4192 161.823 47.9388L165.352 49.8212ZM165.682 49.3342C165.764 49.2515 165.797 49.2465 165.77 49.257L164.285 45.543C163.725 45.7669 163.251 46.1085 162.853 46.5058L165.682 49.3342ZM165.711 49.2796C165.815 49.2416 165.955 49.2084 166.141 49.1941L165.834 45.2059C165.327 45.2449 164.826 45.3451 164.344 45.5204L165.711 49.2796ZM166.141 49.1941C166.422 49.1725 166.781 49.16 167.228 49.16V45.16C166.714 45.16 166.247 45.1741 165.834 45.2059L166.141 49.1941ZM167.228 49.16H175.348V45.16H167.228V49.16Z" fill="white" mask="url(#path-3-outside-2_80_2)"/>
<path d="M275.768 8.04488C274.374 6.65171 272.285 6.65171 270.891 8.04488C269.498 9.43806 269.498 11.5278 270.891 12.921C283.082 25.1113 283.082 44.6158 270.891 56.806C269.498 58.1992 269.498 60.289 270.891 61.6822C271.588 62.3788 272.633 62.727 273.33 62.727C274.026 62.727 275.071 62.3788 275.768 61.6822C290.744 47.0538 290.744 22.6732 275.768 8.04488Z" fill="white"/>
<path d="M206.109 56.806C193.918 44.6158 193.918 25.1113 206.109 12.921C207.502 11.5278 207.502 9.43806 206.109 8.04488C204.715 6.65171 202.626 6.65171 201.232 8.04488C186.256 22.6732 186.256 47.0538 201.232 61.6822C201.929 62.3788 202.626 62.727 203.671 62.727C204.715 62.727 205.412 62.3788 206.109 61.6822C207.502 60.289 207.502 58.1992 206.109 56.806Z" fill="white"/>
<path d="M259.398 43.9193C258.005 45.3125 258.005 47.4022 259.398 48.7954C260.094 49.492 261.139 49.8403 261.836 49.8403C262.532 49.8403 263.577 49.492 264.274 48.7954C268.105 44.9642 270.195 40.0881 269.847 34.5154C269.847 29.291 267.408 24.0665 263.577 20.2353C262.184 18.8421 260.094 18.8421 258.701 20.2353C257.308 21.6285 257.308 23.7183 258.701 25.1114C263.926 30.3358 264.274 39.0432 259.398 43.9193Z" fill="white"/>
<path d="M213.423 49.4927C214.119 50.1893 215.164 50.5376 215.861 50.5376C216.558 50.5376 217.602 50.1893 218.299 49.4927C219.692 48.0995 219.692 46.0097 218.299 44.6166C213.075 39.3922 212.726 30.6848 217.602 25.8087C218.996 24.4155 218.996 22.3258 217.602 20.9326C216.209 19.5394 214.119 19.5394 212.726 20.9326C208.895 24.7638 207.154 29.6399 207.154 35.2126C207.154 40.437 209.592 45.6615 213.423 49.4927Z" fill="white"/>
<path d="M266.364 97.5563H258.701L244.769 43.2224C247.207 41.481 248.949 38.3463 248.949 34.8634C248.949 28.9424 244.421 24.4146 238.5 24.4146C232.579 24.4146 228.051 28.9424 228.051 34.8634C228.051 38.3463 229.793 41.481 232.579 43.2224L218.647 97.5563H210.637C208.547 97.5563 207.154 98.9495 207.154 101.039C207.154 103.129 208.547 104.522 210.637 104.522H266.364C268.453 104.522 269.846 103.129 269.846 101.039C269.846 98.9495 268.453 97.5563 266.364 97.5563ZM244.073 69.6928H232.579L238.152 47.7503L244.073 69.6928ZM231.186 76.6587H231.534H245.466C245.814 76.6587 245.814 76.6587 245.814 76.6587L251.387 97.5563H225.613L231.186 76.6587Z" fill="white"/>
<mask id="path-10-outside-3_80_2" maskUnits="userSpaceOnUse" x="301" y="43" width="52" height="62" fill="black">
<rect fill="white" x="301" y="43" width="52" height="62"/>
<path d="M320.717 72.68C322.744 72.68 324.504 72.4267 325.997 71.92C327.517 71.4133 328.757 70.72 329.717 69.84C330.704 68.9333 331.437 67.8667 331.917 66.64C332.397 65.4133 332.637 64.0667 332.637 62.6C332.637 59.6667 331.664 57.4133 329.717 55.84C327.797 54.2667 324.85 53.48 320.877 53.48H313.997V72.68H320.717ZM348.397 103H338.677C336.837 103 335.504 102.28 334.677 100.84L322.517 82.32C322.064 81.6267 321.557 81.1333 320.997 80.84C320.464 80.5467 319.664 80.4 318.597 80.4H313.997V103H303.237V45.16H320.877C324.797 45.16 328.157 45.5733 330.957 46.4C333.784 47.2 336.09 48.3333 337.877 49.8C339.69 51.2667 341.024 53.0267 341.877 55.08C342.73 57.1067 343.157 59.3467 343.157 61.8C343.157 63.7467 342.864 65.5867 342.277 67.32C341.717 69.0533 340.89 70.6267 339.797 72.04C338.73 73.4533 337.397 74.6933 335.797 75.76C334.224 76.8267 332.424 77.6667 330.397 78.28C331.09 78.68 331.73 79.16 332.317 79.72C332.904 80.2533 333.437 80.8933 333.917 81.64L348.397 103Z"/>
</mask>
<path d="M320.717 72.68C322.744 72.68 324.504 72.4267 325.997 71.92C327.517 71.4133 328.757 70.72 329.717 69.84C330.704 68.9333 331.437 67.8667 331.917 66.64C332.397 65.4133 332.637 64.0667 332.637 62.6C332.637 59.6667 331.664 57.4133 329.717 55.84C327.797 54.2667 324.85 53.48 320.877 53.48H313.997V72.68H320.717ZM348.397 103H338.677C336.837 103 335.504 102.28 334.677 100.84L322.517 82.32C322.064 81.6267 321.557 81.1333 320.997 80.84C320.464 80.5467 319.664 80.4 318.597 80.4H313.997V103H303.237V45.16H320.877C324.797 45.16 328.157 45.5733 330.957 46.4C333.784 47.2 336.09 48.3333 337.877 49.8C339.69 51.2667 341.024 53.0267 341.877 55.08C342.73 57.1067 343.157 59.3467 343.157 61.8C343.157 63.7467 342.864 65.5867 342.277 67.32C341.717 69.0533 340.89 70.6267 339.797 72.04C338.73 73.4533 337.397 74.6933 335.797 75.76C334.224 76.8267 332.424 77.6667 330.397 78.28C331.09 78.68 331.73 79.16 332.317 79.72C332.904 80.2533 333.437 80.8933 333.917 81.64L348.397 103Z" fill="white"/>
<path d="M325.997 71.92L325.364 70.0226L325.354 70.026L325.997 71.92ZM329.717 69.84L331.068 71.3143L331.07 71.3127L329.717 69.84ZM329.717 55.84L328.449 57.387L328.46 57.3955L329.717 55.84ZM313.997 53.48V51.48H311.997V53.48H313.997ZM313.997 72.68H311.997V74.68H313.997V72.68ZM348.397 103V105H352.169L350.052 101.878L348.397 103ZM334.677 100.84L336.411 99.8443L336.382 99.7923L336.349 99.7423L334.677 100.84ZM322.517 82.32L320.843 83.4145L320.845 83.4177L322.517 82.32ZM320.997 80.84L320.033 82.5924L320.051 82.6022L320.069 82.6117L320.997 80.84ZM313.997 80.4V78.4H311.997V80.4H313.997ZM313.997 103V105H315.997V103H313.997ZM303.237 103H301.237V105H303.237V103ZM303.237 45.16V43.16H301.237V45.16H303.237ZM330.957 46.4L330.391 48.3181L330.401 48.3213L330.412 48.3244L330.957 46.4ZM337.877 49.8L336.608 51.3459L336.613 51.3505L336.619 51.355L337.877 49.8ZM341.877 55.08L340.03 55.8475L340.034 55.8561L341.877 55.08ZM342.277 67.32L340.382 66.6788L340.378 66.6919L340.374 66.7051L342.277 67.32ZM339.797 72.04L338.215 70.8163L338.208 70.8257L338.2 70.8352L339.797 72.04ZM335.797 75.76L334.687 74.0959L334.681 74.1002L334.675 74.1046L335.797 75.76ZM330.397 78.28L329.818 76.3657L325.396 77.7038L329.397 80.0124L330.397 78.28ZM332.317 79.72L330.936 81.1667L330.954 81.1835L330.972 81.1999L332.317 79.72ZM333.917 81.64L332.235 82.7215L332.248 82.742L332.261 82.7622L333.917 81.64ZM320.717 74.68C322.903 74.68 324.89 74.4076 326.639 73.814L325.354 70.026C324.117 70.4457 322.584 70.68 320.717 70.68V74.68ZM326.629 73.8174C328.356 73.2417 329.859 72.4228 331.068 71.3143L328.365 68.3657C327.655 69.0172 326.678 69.5849 325.364 70.0226L326.629 73.8174ZM331.07 71.3127C332.277 70.2037 333.186 68.884 333.779 67.3688L330.054 65.9112C329.687 66.8494 329.13 67.663 328.364 68.3673L331.07 71.3127ZM333.779 67.3688C334.36 65.885 334.637 64.2878 334.637 62.6H330.637C330.637 63.8455 330.434 64.9417 330.054 65.9112L333.779 67.3688ZM334.637 62.6C334.637 59.1787 333.474 56.305 330.974 54.2845L328.46 57.3955C329.853 58.5217 330.637 60.1547 330.637 62.6H334.637ZM330.985 54.293C328.548 52.2961 325.053 51.48 320.877 51.48V55.48C324.648 55.48 327.046 56.2372 328.449 57.387L330.985 54.293ZM320.877 51.48H313.997V55.48H320.877V51.48ZM311.997 53.48V72.68H315.997V53.48H311.997ZM313.997 74.68H320.717V70.68H313.997V74.68ZM348.397 101H338.677V105H348.397V101ZM338.677 101C337.459 101 336.837 100.586 336.411 99.8443L332.942 101.836C334.17 103.974 336.214 105 338.677 105V101ZM336.349 99.7423L324.189 81.2223L320.845 83.4177L333.005 101.938L336.349 99.7423ZM324.191 81.2255C323.607 80.3325 322.867 79.5617 321.925 79.0683L320.069 82.6117C320.247 82.7049 320.52 82.9208 320.843 83.4145L324.191 81.2255ZM321.961 79.0876C320.986 78.5516 319.781 78.4 318.597 78.4V82.4C319.546 82.4 319.941 82.5418 320.033 82.5924L321.961 79.0876ZM318.597 78.4H313.997V82.4H318.597V78.4ZM311.997 80.4V103H315.997V80.4H311.997ZM313.997 101H303.237V105H313.997V101ZM305.237 103V45.16H301.237V103H305.237ZM303.237 47.16H320.877V43.16H303.237V47.16ZM320.877 47.16C324.666 47.16 327.825 47.5607 330.391 48.3181L331.523 44.4818C328.489 43.5859 324.927 43.16 320.877 43.16V47.16ZM330.412 48.3244C333.043 49.069 335.083 50.0943 336.608 51.3459L339.146 48.2541C337.097 46.5723 334.524 45.331 331.502 44.4756L330.412 48.3244ZM336.619 51.355C338.187 52.6229 339.311 54.1168 340.03 55.8475L343.724 54.3125C342.736 51.9365 341.194 49.9104 339.135 48.245L336.619 51.355ZM340.034 55.8561C340.772 57.6102 341.157 59.5824 341.157 61.8H345.157C345.157 59.111 344.688 56.6031 343.72 54.3039L340.034 55.8561ZM341.157 61.8C341.157 63.5426 340.895 65.1648 340.382 66.6788L344.171 67.9612C344.832 66.0085 345.157 63.9508 345.157 61.8H341.157ZM340.374 66.7051C339.883 68.2228 339.164 69.5894 338.215 70.8163L341.379 73.2637C342.616 71.664 343.55 69.8838 344.18 67.9349L340.374 66.7051ZM338.2 70.8352C337.28 72.0544 336.117 73.1432 334.687 74.0959L336.906 77.4241C338.677 76.2435 340.18 74.8523 341.393 73.2448L338.2 70.8352ZM334.675 74.1046C333.286 75.046 331.673 75.8042 329.818 76.3657L330.976 80.1943C333.174 79.5291 335.161 78.6073 336.919 77.4154L334.675 74.1046ZM329.397 80.0124C329.951 80.3316 330.463 80.7153 330.936 81.1667L333.698 78.2733C332.997 77.6047 332.23 77.0284 331.396 76.5476L329.397 80.0124ZM330.972 81.1999C331.415 81.6027 331.838 82.1045 332.235 82.7215L335.599 80.5585C335.036 79.6821 334.392 78.904 333.662 78.2401L330.972 81.1999ZM332.261 82.7622L346.741 104.122L350.052 101.878L335.572 80.5178L332.261 82.7622Z" fill="white" mask="url(#path-10-outside-3_80_2)"/>
<mask id="path-12-outside-4_80_2" maskUnits="userSpaceOnUse" x="413" y="142" width="52" height="62" fill="black">
<rect fill="white" x="413" y="142" width="52" height="62"/>
<path d="M432.717 171.68C434.744 171.68 436.504 171.427 437.997 170.92C439.517 170.413 440.757 169.72 441.717 168.84C442.704 167.933 443.437 166.867 443.917 165.64C444.397 164.413 444.637 163.067 444.637 161.6C444.637 158.667 443.664 156.413 441.717 154.84C439.797 153.267 436.85 152.48 432.877 152.48H425.997V171.68H432.717ZM460.397 202H450.677C448.837 202 447.504 201.28 446.677 199.84L434.517 181.32C434.064 180.627 433.557 180.133 432.997 179.84C432.464 179.547 431.664 179.4 430.597 179.4H425.997V202H415.237V144.16H432.877C436.797 144.16 440.157 144.573 442.957 145.4C445.784 146.2 448.09 147.333 449.877 148.8C451.69 150.267 453.024 152.027 453.877 154.08C454.73 156.107 455.157 158.347 455.157 160.8C455.157 162.747 454.864 164.587 454.277 166.32C453.717 168.053 452.89 169.627 451.797 171.04C450.73 172.453 449.397 173.693 447.797 174.76C446.224 175.827 444.424 176.667 442.397 177.28C443.09 177.68 443.73 178.16 444.317 178.72C444.904 179.253 445.437 179.893 445.917 180.64L460.397 202Z"/>
</mask>
<path d="M432.717 171.68C434.744 171.68 436.504 171.427 437.997 170.92C439.517 170.413 440.757 169.72 441.717 168.84C442.704 167.933 443.437 166.867 443.917 165.64C444.397 164.413 444.637 163.067 444.637 161.6C444.637 158.667 443.664 156.413 441.717 154.84C439.797 153.267 436.85 152.48 432.877 152.48H425.997V171.68H432.717ZM460.397 202H450.677C448.837 202 447.504 201.28 446.677 199.84L434.517 181.32C434.064 180.627 433.557 180.133 432.997 179.84C432.464 179.547 431.664 179.4 430.597 179.4H425.997V202H415.237V144.16H432.877C436.797 144.16 440.157 144.573 442.957 145.4C445.784 146.2 448.09 147.333 449.877 148.8C451.69 150.267 453.024 152.027 453.877 154.08C454.73 156.107 455.157 158.347 455.157 160.8C455.157 162.747 454.864 164.587 454.277 166.32C453.717 168.053 452.89 169.627 451.797 171.04C450.73 172.453 449.397 173.693 447.797 174.76C446.224 175.827 444.424 176.667 442.397 177.28C443.09 177.68 443.73 178.16 444.317 178.72C444.904 179.253 445.437 179.893 445.917 180.64L460.397 202Z" fill="white"/>
<path d="M437.997 170.92L437.364 169.023L437.354 169.026L437.997 170.92ZM441.717 168.84L443.068 170.314L443.07 170.313L441.717 168.84ZM441.717 154.84L440.449 156.387L440.46 156.395L441.717 154.84ZM425.997 152.48V150.48H423.997V152.48H425.997ZM425.997 171.68H423.997V173.68H425.997V171.68ZM460.397 202V204H464.169L462.052 200.878L460.397 202ZM446.677 199.84L448.411 198.844L448.382 198.792L448.349 198.742L446.677 199.84ZM434.517 181.32L432.843 182.414L432.845 182.418L434.517 181.32ZM432.997 179.84L432.033 181.592L432.051 181.602L432.069 181.612L432.997 179.84ZM425.997 179.4V177.4H423.997V179.4H425.997ZM425.997 202V204H427.997V202H425.997ZM415.237 202H413.237V204H415.237V202ZM415.237 144.16V142.16H413.237V144.16H415.237ZM442.957 145.4L442.391 147.318L442.401 147.321L442.412 147.324L442.957 145.4ZM449.877 148.8L448.608 150.346L448.613 150.35L448.619 150.355L449.877 148.8ZM453.877 154.08L452.03 154.848L452.034 154.856L453.877 154.08ZM454.277 166.32L452.382 165.679L452.378 165.692L452.374 165.705L454.277 166.32ZM451.797 171.04L450.215 169.816L450.208 169.826L450.2 169.835L451.797 171.04ZM447.797 174.76L446.687 173.096L446.681 173.1L446.675 173.105L447.797 174.76ZM442.397 177.28L441.818 175.366L437.396 176.704L441.397 179.012L442.397 177.28ZM444.317 178.72L442.936 180.167L442.954 180.184L442.972 180.2L444.317 178.72ZM445.917 180.64L444.235 181.722L444.248 181.742L444.261 181.762L445.917 180.64ZM432.717 173.68C434.903 173.68 436.89 173.408 438.639 172.814L437.354 169.026C436.117 169.446 434.584 169.68 432.717 169.68V173.68ZM438.629 172.817C440.356 172.242 441.859 171.423 443.068 170.314L440.365 167.366C439.655 168.017 438.678 168.585 437.364 169.023L438.629 172.817ZM443.07 170.313C444.277 169.204 445.186 167.884 445.779 166.369L442.054 164.911C441.687 165.849 441.13 166.663 440.364 167.367L443.07 170.313ZM445.779 166.369C446.36 164.885 446.637 163.288 446.637 161.6H442.637C442.637 162.846 442.434 163.942 442.054 164.911L445.779 166.369ZM446.637 161.6C446.637 158.179 445.474 155.305 442.974 153.285L440.46 156.395C441.853 157.522 442.637 159.155 442.637 161.6H446.637ZM442.985 153.293C440.548 151.296 437.053 150.48 432.877 150.48V154.48C436.648 154.48 439.046 155.237 440.449 156.387L442.985 153.293ZM432.877 150.48H425.997V154.48H432.877V150.48ZM423.997 152.48V171.68H427.997V152.48H423.997ZM425.997 173.68H432.717V169.68H425.997V173.68ZM460.397 200H450.677V204H460.397V200ZM450.677 200C449.459 200 448.837 199.586 448.411 198.844L444.942 200.836C446.17 202.974 448.214 204 450.677 204V200ZM448.349 198.742L436.189 180.222L432.845 182.418L445.005 200.938L448.349 198.742ZM436.191 180.226C435.607 179.332 434.867 178.562 433.925 178.068L432.069 181.612C432.247 181.705 432.52 181.921 432.843 182.414L436.191 180.226ZM433.961 178.088C432.986 177.552 431.781 177.4 430.597 177.4V181.4C431.546 181.4 431.941 181.542 432.033 181.592L433.961 178.088ZM430.597 177.4H425.997V181.4H430.597V177.4ZM423.997 179.4V202H427.997V179.4H423.997ZM425.997 200H415.237V204H425.997V200ZM417.237 202V144.16H413.237V202H417.237ZM415.237 146.16H432.877V142.16H415.237V146.16ZM432.877 146.16C436.666 146.16 439.825 146.561 442.391 147.318L443.523 143.482C440.489 142.586 436.927 142.16 432.877 142.16V146.16ZM442.412 147.324C445.043 148.069 447.083 149.094 448.608 150.346L451.146 147.254C449.097 145.572 446.524 144.331 443.502 143.476L442.412 147.324ZM448.619 150.355C450.187 151.623 451.311 153.117 452.03 154.848L455.724 153.312C454.736 150.937 453.194 148.91 451.135 147.245L448.619 150.355ZM452.034 154.856C452.772 156.61 453.157 158.582 453.157 160.8H457.157C457.157 158.111 456.688 155.603 455.72 153.304L452.034 154.856ZM453.157 160.8C453.157 162.543 452.895 164.165 452.382 165.679L456.171 166.961C456.832 165.008 457.157 162.951 457.157 160.8H453.157ZM452.374 165.705C451.883 167.223 451.164 168.589 450.215 169.816L453.379 172.264C454.616 170.664 455.55 168.884 456.18 166.935L452.374 165.705ZM450.2 169.835C449.28 171.054 448.117 172.143 446.687 173.096L448.906 176.424C450.677 175.243 452.18 173.852 453.393 172.245L450.2 169.835ZM446.675 173.105C445.286 174.046 443.673 174.804 441.818 175.366L442.976 179.194C445.174 178.529 447.161 177.607 448.919 176.415L446.675 173.105ZM441.397 179.012C441.951 179.332 442.463 179.715 442.936 180.167L445.698 177.273C444.997 176.605 444.23 176.028 443.396 175.548L441.397 179.012ZM442.972 180.2C443.415 180.603 443.838 181.105 444.235 181.722L447.599 179.558C447.036 178.682 446.392 177.904 445.662 177.24L442.972 180.2ZM444.261 181.762L458.741 203.122L462.052 200.878L447.572 179.518L444.261 181.762Z" fill="white" mask="url(#path-12-outside-4_80_2)"/>
<mask id="path-14-outside-5_80_2" maskUnits="userSpaceOnUse" x="121" y="141" width="42" height="62" fill="black">
<rect fill="white" x="121" y="141" width="42" height="62"/>
<path d="M134.732 151.72V167.76H154.972V176.04H134.732V192.4H160.412V201H123.932V143.16H160.412V151.72H134.732Z"/>
</mask>
<path d="M134.732 151.72V167.76H154.972V176.04H134.732V192.4H160.412V201H123.932V143.16H160.412V151.72H134.732Z" fill="white"/>
<path d="M134.732 151.72V149.72H132.732V151.72H134.732ZM134.732 167.76H132.732V169.76H134.732V167.76ZM154.972 167.76H156.972V165.76H154.972V167.76ZM154.972 176.04V178.04H156.972V176.04H154.972ZM134.732 176.04V174.04H132.732V176.04H134.732ZM134.732 192.4H132.732V194.4H134.732V192.4ZM160.412 192.4H162.412V190.4H160.412V192.4ZM160.412 201V203H162.412V201H160.412ZM123.932 201H121.932V203H123.932V201ZM123.932 143.16V141.16H121.932V143.16H123.932ZM160.412 143.16H162.412V141.16H160.412V143.16ZM160.412 151.72V153.72H162.412V151.72H160.412ZM132.732 151.72V167.76H136.732V151.72H132.732ZM134.732 169.76H154.972V165.76H134.732V169.76ZM152.972 167.76V176.04H156.972V167.76H152.972ZM154.972 174.04H134.732V178.04H154.972V174.04ZM132.732 176.04V192.4H136.732V176.04H132.732ZM134.732 194.4H160.412V190.4H134.732V194.4ZM158.412 192.4V201H162.412V192.4H158.412ZM160.412 199H123.932V203H160.412V199ZM125.932 201V143.16H121.932V201H125.932ZM123.932 145.16H160.412V141.16H123.932V145.16ZM158.412 143.16V151.72H162.412V143.16H158.412ZM160.412 149.72H134.732V153.72H160.412V149.72Z" fill="white" mask="url(#path-14-outside-5_80_2)"/>
<circle cx="187.5" cy="194.5" r="6" stroke="white" stroke-width="3"/>
<circle cx="239.5" cy="194.5" r="6" stroke="white" stroke-width="3"/>
<circle cx="214.5" cy="150.5" r="6" stroke="white" stroke-width="3"/>
<path d="M266.5 150.5C266.5 153.814 263.814 156.5 260.5 156.5C257.186 156.5 254.5 153.814 254.5 150.5C254.5 147.186 257.186 144.5 260.5 144.5C263.814 144.5 266.5 147.186 266.5 150.5Z" stroke="white" stroke-width="3"/>
<path d="M211.752 155.964L191 189" stroke="white" stroke-width="5"/>
<line x1="258.301" y1="156.976" x2="244.301" y2="189.976" stroke="white" stroke-width="5"/>
<line x1="218.209" y1="154.83" x2="236.209" y2="188.83" stroke="white" stroke-width="5"/>
<mask id="path-23-outside-6_80_2" maskUnits="userSpaceOnUse" x="284" y="140" width="44" height="64" fill="black">
<rect fill="white" x="284" y="140" width="44" height="64"/>
<path d="M322.24 153.68C321.92 154.24 321.573 154.653 321.2 154.92C320.853 155.16 320.413 155.28 319.88 155.28C319.32 155.28 318.707 155.08 318.04 154.68C317.4 154.253 316.627 153.787 315.72 153.28C314.813 152.773 313.747 152.32 312.52 151.92C311.32 151.493 309.893 151.28 308.24 151.28C306.747 151.28 305.44 151.467 304.32 151.84C303.2 152.187 302.253 152.68 301.48 153.32C300.733 153.96 300.173 154.733 299.8 155.64C299.427 156.52 299.24 157.493 299.24 158.56C299.24 159.92 299.613 161.053 300.36 161.96C301.133 162.867 302.147 163.64 303.4 164.28C304.653 164.92 306.08 165.493 307.68 166C309.28 166.507 310.92 167.053 312.6 167.64C314.28 168.2 315.92 168.867 317.52 169.64C319.12 170.387 320.547 171.347 321.8 172.52C323.053 173.667 324.053 175.08 324.8 176.76C325.573 178.44 325.96 180.48 325.96 182.88C325.96 185.493 325.507 187.947 324.6 190.24C323.72 192.507 322.413 194.493 320.68 196.2C318.973 197.88 316.88 199.213 314.4 200.2C311.92 201.16 309.08 201.64 305.88 201.64C304.04 201.64 302.227 201.453 300.44 201.08C298.653 200.733 296.933 200.227 295.28 199.56C293.653 198.893 292.12 198.093 290.68 197.16C289.24 196.227 287.96 195.187 286.84 194.04L290 188.88C290.267 188.507 290.613 188.2 291.04 187.96C291.467 187.693 291.92 187.56 292.4 187.56C293.067 187.56 293.787 187.84 294.56 188.4C295.333 188.933 296.253 189.533 297.32 190.2C298.387 190.867 299.627 191.48 301.04 192.04C302.48 192.573 304.2 192.84 306.2 192.84C309.267 192.84 311.64 192.12 313.32 190.68C315 189.213 315.84 187.12 315.84 184.4C315.84 182.88 315.453 181.64 314.68 180.68C313.933 179.72 312.933 178.92 311.68 178.28C310.427 177.613 309 177.053 307.4 176.6C305.8 176.147 304.173 175.653 302.52 175.12C300.867 174.587 299.24 173.947 297.64 173.2C296.04 172.453 294.613 171.48 293.36 170.28C292.107 169.08 291.093 167.587 290.32 165.8C289.573 163.987 289.2 161.76 289.2 159.12C289.2 157.013 289.613 154.96 290.44 152.96C291.293 150.96 292.52 149.187 294.12 147.64C295.72 146.093 297.693 144.853 300.04 143.92C302.387 142.987 305.08 142.52 308.12 142.52C311.533 142.52 314.68 143.053 317.56 144.12C320.44 145.187 322.893 146.68 324.92 148.6L322.24 153.68Z"/>
</mask>
<path d="M322.24 153.68C321.92 154.24 321.573 154.653 321.2 154.92C320.853 155.16 320.413 155.28 319.88 155.28C319.32 155.28 318.707 155.08 318.04 154.68C317.4 154.253 316.627 153.787 315.72 153.28C314.813 152.773 313.747 152.32 312.52 151.92C311.32 151.493 309.893 151.28 308.24 151.28C306.747 151.28 305.44 151.467 304.32 151.84C303.2 152.187 302.253 152.68 301.48 153.32C300.733 153.96 300.173 154.733 299.8 155.64C299.427 156.52 299.24 157.493 299.24 158.56C299.24 159.92 299.613 161.053 300.36 161.96C301.133 162.867 302.147 163.64 303.4 164.28C304.653 164.92 306.08 165.493 307.68 166C309.28 166.507 310.92 167.053 312.6 167.64C314.28 168.2 315.92 168.867 317.52 169.64C319.12 170.387 320.547 171.347 321.8 172.52C323.053 173.667 324.053 175.08 324.8 176.76C325.573 178.44 325.96 180.48 325.96 182.88C325.96 185.493 325.507 187.947 324.6 190.24C323.72 192.507 322.413 194.493 320.68 196.2C318.973 197.88 316.88 199.213 314.4 200.2C311.92 201.16 309.08 201.64 305.88 201.64C304.04 201.64 302.227 201.453 300.44 201.08C298.653 200.733 296.933 200.227 295.28 199.56C293.653 198.893 292.12 198.093 290.68 197.16C289.24 196.227 287.96 195.187 286.84 194.04L290 188.88C290.267 188.507 290.613 188.2 291.04 187.96C291.467 187.693 291.92 187.56 292.4 187.56C293.067 187.56 293.787 187.84 294.56 188.4C295.333 188.933 296.253 189.533 297.32 190.2C298.387 190.867 299.627 191.48 301.04 192.04C302.48 192.573 304.2 192.84 306.2 192.84C309.267 192.84 311.64 192.12 313.32 190.68C315 189.213 315.84 187.12 315.84 184.4C315.84 182.88 315.453 181.64 314.68 180.68C313.933 179.72 312.933 178.92 311.68 178.28C310.427 177.613 309 177.053 307.4 176.6C305.8 176.147 304.173 175.653 302.52 175.12C300.867 174.587 299.24 173.947 297.64 173.2C296.04 172.453 294.613 171.48 293.36 170.28C292.107 169.08 291.093 167.587 290.32 165.8C289.573 163.987 289.2 161.76 289.2 159.12C289.2 157.013 289.613 154.96 290.44 152.96C291.293 150.96 292.52 149.187 294.12 147.64C295.72 146.093 297.693 144.853 300.04 143.92C302.387 142.987 305.08 142.52 308.12 142.52C311.533 142.52 314.68 143.053 317.56 144.12C320.44 145.187 322.893 146.68 324.92 148.6L322.24 153.68Z" fill="white"/>
<path d="M322.24 153.68L323.976 154.672L323.993 154.643L324.009 154.613L322.24 153.68ZM321.2 154.92L322.338 156.564L322.351 156.556L322.362 156.547L321.2 154.92ZM318.04 154.68L316.931 156.344L316.97 156.37L317.011 156.395L318.04 154.68ZM315.72 153.28L316.696 151.534L316.696 151.534L315.72 153.28ZM312.52 151.92L311.85 153.804L311.875 153.813L311.9 153.821L312.52 151.92ZM304.32 151.84L304.911 153.751L304.932 153.744L304.952 153.737L304.32 151.84ZM301.48 153.32L300.205 151.779L300.192 151.79L300.178 151.801L301.48 153.32ZM299.8 155.64L301.641 156.421L301.645 156.411L301.649 156.401L299.8 155.64ZM300.36 161.96L298.816 163.231L298.827 163.245L298.838 163.258L300.36 161.96ZM303.4 164.28L302.49 166.061L302.49 166.061L303.4 164.28ZM312.6 167.64L311.941 169.528L311.954 169.533L311.968 169.537L312.6 167.64ZM317.52 169.64L316.65 171.441L316.662 171.447L316.674 171.452L317.52 169.64ZM321.8 172.52L320.433 173.98L320.442 173.988L320.45 173.996L321.8 172.52ZM324.8 176.76L322.972 177.572L322.978 177.584L322.983 177.596L324.8 176.76ZM324.6 190.24L322.74 189.505L322.736 189.516L324.6 190.24ZM320.68 196.2L322.083 197.625L322.083 197.625L320.68 196.2ZM314.4 200.2L315.122 202.065L315.131 202.062L315.139 202.058L314.4 200.2ZM300.44 201.08L300.849 199.122L300.835 199.119L300.821 199.117L300.44 201.08ZM295.28 199.56L294.522 201.411L294.532 201.415L295.28 199.56ZM290.68 197.16L289.592 198.838L289.592 198.838L290.68 197.16ZM286.84 194.04L285.134 192.995L284.321 194.323L285.409 195.437L286.84 194.04ZM290 188.88L288.373 187.718L288.331 187.775L288.294 187.835L290 188.88ZM291.04 187.96L292.021 189.703L292.061 189.68L292.1 189.656L291.04 187.96ZM294.56 188.4L293.387 190.02L293.406 190.033L293.425 190.046L294.56 188.4ZM297.32 190.2L298.38 188.504L298.38 188.504L297.32 190.2ZM301.04 192.04L300.303 193.899L300.324 193.908L300.345 193.915L301.04 192.04ZM313.32 190.68L314.622 192.199L314.628 192.193L314.635 192.187L313.32 190.68ZM314.68 180.68L313.101 181.908L313.112 181.921L313.122 181.935L314.68 180.68ZM311.68 178.28L310.741 180.046L310.756 180.054L310.77 180.061L311.68 178.28ZM307.4 176.6L306.855 178.524L306.855 178.524L307.4 176.6ZM302.52 175.12L301.906 177.023L301.906 177.023L302.52 175.12ZM293.36 170.28L291.977 171.725L291.977 171.725L293.36 170.28ZM290.32 165.8L288.471 166.561L288.477 166.578L288.485 166.594L290.32 165.8ZM290.44 152.96L288.6 152.175L288.596 152.186L288.592 152.196L290.44 152.96ZM294.12 147.64L292.73 146.202L292.73 146.202L294.12 147.64ZM317.56 144.12L316.865 145.995L316.865 145.995L317.56 144.12ZM324.92 148.6L326.689 149.533L327.397 148.191L326.295 147.148L324.92 148.6ZM320.504 152.688C320.273 153.092 320.101 153.247 320.038 153.293L322.362 156.547C323.046 156.059 323.567 155.388 323.976 154.672L320.504 152.688ZM320.062 153.276C320.089 153.256 320.103 153.255 320.084 153.26C320.061 153.267 319.998 153.28 319.88 153.28V157.28C320.712 157.28 321.578 157.091 322.338 156.564L320.062 153.276ZM319.88 153.28C319.797 153.28 319.54 153.248 319.069 152.965L317.011 156.395C317.873 156.912 318.843 157.28 319.88 157.28V153.28ZM319.149 153.016C318.454 152.552 317.633 152.058 316.696 151.534L314.744 155.026C315.62 155.515 316.346 155.954 316.931 156.344L319.149 153.016ZM316.696 151.534C315.652 150.951 314.462 150.45 313.14 150.019L311.9 153.821C313.032 154.19 313.974 154.596 314.744 155.026L316.696 151.534ZM313.19 150.036C311.722 149.513 310.057 149.28 308.24 149.28V153.28C309.73 153.28 310.918 153.473 311.85 153.804L313.19 150.036ZM308.24 149.28C306.586 149.28 305.057 149.486 303.688 149.943L304.952 153.737C305.823 153.447 306.907 153.28 308.24 153.28V149.28ZM303.729 149.929C302.4 150.341 301.211 150.947 300.205 151.779L302.755 154.861C303.296 154.413 304 154.033 304.911 153.751L303.729 149.929ZM300.178 151.801C299.193 152.646 298.445 153.679 297.951 154.878L301.649 156.401C301.902 155.788 302.274 155.274 302.782 154.839L300.178 151.801ZM297.959 154.859C297.469 156.013 297.24 157.256 297.24 158.56H301.24C301.24 157.731 301.384 157.027 301.641 156.421L297.959 154.859ZM297.24 158.56C297.24 160.307 297.729 161.911 298.816 163.231L301.904 160.689C301.498 160.195 301.24 159.533 301.24 158.56H297.24ZM298.838 163.258C299.81 164.397 301.045 165.323 302.49 166.061L304.31 162.499C303.248 161.957 302.457 161.336 301.882 160.662L298.838 163.258ZM302.49 166.061C303.859 166.76 305.39 167.373 307.076 167.907L308.284 164.093C306.77 163.614 305.448 163.08 304.31 162.499L302.49 166.061ZM307.076 167.907C308.657 168.407 310.278 168.948 311.941 169.528L313.259 165.752C311.562 165.159 309.903 164.606 308.284 164.093L307.076 167.907ZM311.968 169.537C313.566 170.07 315.127 170.705 316.65 171.441L318.39 167.839C316.713 167.029 314.994 166.33 313.232 165.743L311.968 169.537ZM316.674 171.452C318.089 172.112 319.338 172.955 320.433 173.98L323.167 171.06C321.755 169.738 320.151 168.661 318.366 167.828L316.674 171.452ZM320.45 173.996C321.484 174.942 322.328 176.123 322.972 177.572L326.628 175.948C325.778 174.037 324.623 172.392 323.15 171.044L320.45 173.996ZM322.983 177.596C323.606 178.948 323.96 180.686 323.96 182.88H327.96C327.96 180.274 327.541 177.932 326.617 175.924L322.983 177.596ZM323.96 182.88C323.96 185.257 323.549 187.459 322.74 189.505L326.46 190.975C327.465 188.434 327.96 185.73 327.96 182.88H323.96ZM322.736 189.516C321.958 191.519 320.809 193.267 319.277 194.775L322.083 197.625C324.018 195.72 325.482 193.494 326.464 190.964L322.736 189.516ZM319.277 194.775C317.781 196.247 315.921 197.442 313.661 198.342L315.139 202.058C317.839 200.984 320.166 199.513 322.083 197.625L319.277 194.775ZM313.678 198.335C311.47 199.19 308.882 199.64 305.88 199.64V203.64C309.278 203.64 312.37 203.13 315.122 202.065L313.678 198.335ZM305.88 199.64C304.176 199.64 302.5 199.467 300.849 199.122L300.031 203.038C301.953 203.439 303.904 203.64 305.88 203.64V199.64ZM300.821 199.117C299.157 198.794 297.56 198.323 296.028 197.705L294.532 201.415C296.306 202.13 298.149 202.673 300.059 203.043L300.821 199.117ZM296.038 197.709C294.524 197.089 293.101 196.346 291.768 195.482L289.592 198.838C291.139 199.841 292.783 200.698 294.522 201.411L296.038 197.709ZM291.768 195.482C290.443 194.623 289.28 193.676 288.271 192.643L285.409 195.437C286.64 196.697 288.037 197.83 289.592 198.838L291.768 195.482ZM288.546 195.085L291.706 189.925L288.294 187.835L285.134 192.995L288.546 195.085ZM291.627 190.042C291.712 189.924 291.832 189.809 292.021 189.703L290.059 186.217C289.395 186.591 288.821 187.09 288.373 187.718L291.627 190.042ZM292.1 189.656C292.225 189.578 292.313 189.56 292.4 189.56V185.56C291.527 185.56 290.708 185.809 289.98 186.264L292.1 189.656ZM292.4 189.56C292.499 189.56 292.813 189.604 293.387 190.02L295.733 186.78C294.761 186.076 293.635 185.56 292.4 185.56V189.56ZM293.425 190.046C294.229 190.601 295.176 191.218 296.26 191.896L298.38 188.504C297.331 187.848 296.437 187.265 295.695 186.754L293.425 190.046ZM296.26 191.896C297.448 192.638 298.8 193.304 300.303 193.899L301.777 190.181C300.453 189.656 299.325 189.095 298.38 188.504L296.26 191.896ZM300.345 193.915C302.064 194.552 304.031 194.84 306.2 194.84V190.84C304.369 190.84 302.896 190.595 301.735 190.165L300.345 193.915ZM306.2 194.84C309.561 194.84 312.461 194.051 314.622 192.199L312.018 189.161C310.819 190.189 308.973 190.84 306.2 190.84V194.84ZM314.635 192.187C316.845 190.258 317.84 187.559 317.84 184.4H313.84C313.84 186.681 313.155 188.169 312.005 189.173L314.635 192.187ZM317.84 184.4C317.84 182.533 317.359 180.818 316.238 179.425L313.122 181.935C313.548 182.462 313.84 183.227 313.84 184.4H317.84ZM316.259 179.452C315.306 178.227 314.063 177.251 312.59 176.499L310.77 180.061C311.804 180.589 312.561 181.213 313.101 181.908L316.259 179.452ZM312.619 176.514C311.221 175.771 309.659 175.161 307.945 174.676L306.855 178.524C308.341 178.945 309.632 179.456 310.741 180.046L312.619 176.514ZM307.945 174.676C306.369 174.229 304.766 173.743 303.134 173.217L301.906 177.023C303.581 177.564 305.231 178.064 306.855 178.524L307.945 174.676ZM303.134 173.217C301.561 172.709 300.012 172.1 298.486 171.388L296.794 175.012C298.468 175.794 300.172 176.464 301.906 177.023L303.134 173.217ZM298.486 171.388C297.08 170.732 295.836 169.882 294.743 168.835L291.977 171.725C293.391 173.078 295 174.175 296.794 175.012L298.486 171.388ZM294.743 168.835C293.705 167.841 292.836 166.577 292.155 165.006L288.485 166.594C289.351 168.596 290.509 170.319 291.977 171.725L294.743 168.835ZM292.169 165.038C291.55 163.535 291.2 161.584 291.2 159.12H287.2C287.2 161.936 287.597 164.439 288.471 166.561L292.169 165.038ZM291.2 159.12C291.2 157.283 291.559 155.488 292.288 153.724L288.592 152.196C287.668 154.432 287.2 156.744 287.2 159.12H291.2ZM292.28 153.745C293.026 151.996 294.097 150.444 295.51 149.078L292.73 146.202C290.943 147.93 289.561 149.924 288.6 152.175L292.28 153.745ZM295.51 149.078C296.899 147.735 298.642 146.628 300.779 145.778L299.301 142.062C296.744 143.078 294.541 144.451 292.73 146.202L295.51 149.078ZM300.779 145.778C302.848 144.956 305.283 144.52 308.12 144.52V140.52C304.877 140.52 301.925 141.018 299.301 142.062L300.779 145.778ZM308.12 144.52C311.323 144.52 314.231 145.02 316.865 145.995L318.255 142.245C315.129 141.087 311.744 140.52 308.12 140.52V144.52ZM316.865 145.995C319.518 146.978 321.733 148.335 323.545 150.052L326.295 147.148C324.054 145.025 321.362 143.396 318.255 142.245L316.865 145.995ZM323.151 147.667L320.471 152.747L324.009 154.613L326.689 149.533L323.151 147.667Z" fill="white" mask="url(#path-23-outside-6_80_2)"/>
<g clip-path="url(#clip0_80_2)">
<path d="M393.057 156.254V154.943C393.057 152.182 390.818 149.943 388.057 149.943H386.746V141C386.746 140.448 386.298 140 385.746 140H383.442C382.889 140 382.442 140.448 382.442 141V149.943H377.017V141C377.017 140.448 376.569 140 376.017 140H373.712C373.16 140 372.712 140.448 372.712 141V149.943H367.288V141C367.288 140.448 366.84 140 366.288 140H363.983C363.431 140 362.983 140.448 362.983 141V149.943H357.559V141C357.559 140.448 357.111 140 356.559 140H354.254C353.702 140 353.254 140.448 353.254 141V149.943H351.943C349.182 149.943 346.943 152.182 346.943 154.943V156.254H338C337.448 156.254 337 156.702 337 157.254V159.558C337 160.111 337.448 160.558 338 160.558H346.943V165.983H338C337.448 165.983 337 166.431 337 166.983V169.288C337 169.84 337.448 170.288 338 170.288H346.943V175.712H338C337.448 175.712 337 176.16 337 176.712V179.017C337 179.569 337.448 180.017 338 180.017H346.943V185.441H338C337.448 185.441 337 185.889 337 186.441V188.746C337 189.298 337.448 189.746 338 189.746H346.943V191.056C346.943 193.818 349.182 196.056 351.943 196.056H353.254V205C353.254 205.552 353.702 206 354.254 206H356.558C357.111 206 357.558 205.552 357.558 205V196.057H362.983V205C362.983 205.552 363.431 206 363.983 206H366.288C366.84 206 367.288 205.552 367.288 205V196.057H372.712V205C372.712 205.552 373.16 206 373.712 206H376.017C376.569 206 377.017 205.552 377.017 205V196.057H382.441V205C382.441 205.552 382.889 206 383.441 206H385.746C386.298 206 386.746 205.552 386.746 205V196.057H388.056C390.818 196.057 393.056 193.818 393.056 191.057V189.746H402C402.552 189.746 403 189.298 403 188.746V186.442C403 185.889 402.552 185.442 402 185.442H393.057V180.017H402C402.552 180.017 403 179.569 403 179.017V176.712C403 176.16 402.552 175.712 402 175.712H393.057V170.288H402C402.552 170.288 403 169.84 403 169.288V166.983C403 166.431 402.552 165.983 402 165.983H393.057V160.559H402C402.552 160.559 403 160.111 403 159.559V157.254C403 156.702 402.552 156.254 402 156.254L393.057 156.254ZM385.439 176.412C385.439 179.393 383.602 181.952 381.002 183.019C380.824 186.49 377.944 189.259 374.429 189.259C372.725 189.259 371.17 188.608 370 187.542C368.83 188.608 367.275 189.259 365.571 189.259C362.056 189.259 359.176 186.49 358.998 183.019C356.397 181.952 354.56 179.393 354.56 176.412C354.56 175.205 354.863 174.037 355.429 172.999C354.876 171.985 354.56 170.823 354.56 169.588C354.56 166.634 356.39 164.058 358.998 162.983C359.175 159.511 362.055 156.741 365.571 156.741C367.275 156.741 368.83 157.392 370 158.458C371.17 157.392 372.725 156.741 374.429 156.741C377.944 156.741 380.825 159.511 381.002 162.983C383.61 164.058 385.439 166.634 385.439 169.588C385.439 170.823 385.124 171.985 384.57 172.999C385.137 174.037 385.439 175.205 385.439 176.412Z" fill="white"/>
<path d="M365.571 161.045C364.315 161.045 363.294 162.066 363.294 163.322C363.294 164.266 363.887 165.124 364.771 165.455L363.259 169.485C362.02 169.02 360.979 168.197 360.235 167.162C359.412 167.662 358.865 168.569 358.865 169.588C358.865 171.151 360.136 172.423 361.699 172.423V176.727C360.697 176.727 359.743 176.519 358.877 176.144C358.869 176.233 358.864 176.322 358.864 176.412C358.864 177.975 360.136 179.247 361.699 179.247C362.51 179.247 363.257 178.916 363.801 178.314L366.992 181.204C366.027 182.269 364.767 183.007 363.394 183.344C363.679 184.276 364.547 184.955 365.571 184.955C366.826 184.955 367.848 183.934 367.848 182.678V163.322C367.848 162.066 366.826 161.045 365.571 161.045Z" fill="white"/>
<path d="M378.3 176.727V172.423C379.864 172.423 381.135 171.151 381.135 169.588C381.135 168.569 380.587 167.662 379.765 167.162C379.021 168.198 377.98 169.02 376.741 169.485L375.229 165.455C376.112 165.124 376.706 164.266 376.706 163.322C376.706 162.066 375.685 161.045 374.429 161.045C373.174 161.045 372.152 162.066 372.152 163.322V182.678C372.152 183.934 373.174 184.955 374.429 184.955C375.453 184.955 376.321 184.276 376.606 183.344C375.233 183.007 373.973 182.269 373.008 181.204L376.198 178.314C376.743 178.916 377.49 179.247 378.3 179.247C379.864 179.247 381.135 177.975 381.135 176.412C381.135 176.322 381.131 176.233 381.123 176.144C380.256 176.519 379.302 176.727 378.3 176.727Z" fill="white"/>
</g>
<g filter="url(#filter0_d_80_2)">
<rect x="384.529" y="42" width="7.17647" height="64.5882" fill="white"/>
<rect x="395.294" y="42" width="7.17647" height="64.5882" fill="white"/>
<rect x="391.706" y="99.4116" width="3.58824" height="7.17647" fill="white"/>
<rect x="402.471" y="42" width="21.5294" height="7.17647" fill="white"/>
<rect x="363" y="42" width="21.5294" height="7.17647" fill="white"/>
</g>
<defs>
<filter id="filter0_d_80_2" x="357" y="32" width="81" height="84.5884" filterUnits="userSpaceOnUse" color-interpolation-filters="sRGB">
<feFlood flood-opacity="0" result="BackgroundImageFix"/>
<feColorMatrix in="SourceAlpha" type="matrix" values="0 0 0 0 0 0 0 0 0 0 0 0 0 0 0 0 0 0 127 0" result="hardAlpha"/>
<feOffset dx="4"/>
<feGaussianBlur stdDeviation="5"/>
<feComposite in2="hardAlpha" operator="out"/>
<feColorMatrix type="matrix" values="0 0 0 0 0.180392 0 0 0 0 0.262745 0 0 0 0 0.454902 0 0 0 0.4 0"/>
<feBlend mode="normal" in2="BackgroundImageFix" result="effect1_dropShadow_80_2"/>
<feBlend mode="normal" in="SourceGraphic" in2="effect1_dropShadow_80_2" result="shape"/>
</filter>
<clipPath id="clip0_80_2">
<rect width="66" height="66" fill="white" transform="translate(337 140)"/>
</clipPath>
</defs>
</svg>
