<svg width="224" height="161" viewBox="0 0 224 161" fill="none" xmlns="http://www.w3.org/2000/svg">
<g filter="url(#filter0_di_81_5)">
<mask id="path-1-outside-1_81_5" maskUnits="userSpaceOnUse" x="4" y="0" width="216" height="153" fill="black">
<rect fill="white" x="4" width="216" height="153"/>
<path d="M97.2094 126C99.876 126 101.976 126.767 103.509 128.3C105.109 129.767 105.909 131.733 105.909 134.2V149H6.70938V140.8C6.70938 139.133 7.04271 137.4 7.70938 135.6C8.44271 133.733 9.57604 132.067 11.1094 130.6L55.0094 86.6C58.676 82.8667 61.9427 79.3 64.8094 75.9C67.7427 72.5 70.176 69.1333 72.1094 65.8C74.0427 62.4667 75.5094 59.1 76.5094 55.7C77.576 52.2333 78.1094 48.6 78.1094 44.8C78.1094 41.3333 77.6094 38.3 76.6094 35.7C75.6094 33.0333 74.176 30.8 72.3094 29C70.5094 27.2 68.3094 25.8667 65.7094 25C63.176 24.0667 60.3094 23.6 57.1094 23.6C54.176 23.6 51.4427 24.0333 48.9094 24.9C46.4427 25.7 44.2427 26.8667 42.3094 28.4C40.376 29.8667 38.7427 31.6 37.4094 33.6C36.076 35.6 35.076 37.8 34.4094 40.2C33.276 43.2667 31.8094 45.3 30.0094 46.3C28.2094 47.3 25.6094 47.5333 22.2094 47L9.20938 44.7C10.2094 37.7667 12.1427 31.7 15.0094 26.5C17.876 21.2333 21.4427 16.8667 25.7094 13.4C30.0427 9.86666 34.976 7.23333 40.5094 5.49999C46.1094 3.7 52.1094 2.8 58.5094 2.8C65.176 2.8 71.276 3.8 76.8094 5.8C82.3427 7.73332 87.076 10.5 91.0094 14.1C94.9427 17.7 98.0094 22.0333 100.209 27.1C102.409 32.1667 103.509 37.8 103.509 44C103.509 49.3333 102.709 54.2667 101.109 58.8C99.576 63.3333 97.476 67.6667 94.8094 71.8C92.2094 75.9333 89.1427 79.9333 85.6094 83.8C82.076 87.6667 78.376 91.6 74.5094 95.6L41.9094 128.9C45.0427 127.967 48.1427 127.267 51.2094 126.8C54.3427 126.267 57.3094 126 60.1094 126H97.2094ZM208.225 30.7C207.425 32.1 206.558 33.1333 205.625 33.8C204.758 34.4 203.658 34.7 202.325 34.7C200.925 34.7 199.392 34.2 197.725 33.2C196.125 32.1333 194.192 30.9667 191.925 29.7C189.658 28.4333 186.992 27.3 183.925 26.3C180.925 25.2333 177.358 24.7 173.225 24.7C169.492 24.7 166.225 25.1667 163.425 26.1C160.625 26.9667 158.258 28.2 156.325 29.8C154.458 31.4 153.058 33.3333 152.125 35.6C151.192 37.8 150.725 40.2333 150.725 42.9C150.725 46.3 151.658 49.1333 153.525 51.4C155.458 53.6667 157.992 55.6 161.125 57.2C164.258 58.8 167.825 60.2333 171.825 61.5C175.825 62.7667 179.925 64.1333 184.125 65.6C188.325 67 192.425 68.6667 196.425 70.6C200.425 72.4667 203.992 74.8667 207.125 77.8C210.258 80.6667 212.758 84.2 214.625 88.4C216.558 92.6 217.525 97.7 217.525 103.7C217.525 110.233 216.392 116.367 214.125 122.1C211.925 127.767 208.658 132.733 204.325 137C200.058 141.2 194.825 144.533 188.625 147C182.425 149.4 175.325 150.6 167.325 150.6C162.725 150.6 158.192 150.133 153.725 149.2C149.258 148.333 144.958 147.067 140.825 145.4C136.758 143.733 132.925 141.733 129.325 139.4C125.725 137.067 122.525 134.467 119.725 131.6L127.625 118.7C128.292 117.767 129.158 117 130.225 116.4C131.292 115.733 132.425 115.4 133.625 115.4C135.292 115.4 137.092 116.1 139.025 117.5C140.958 118.833 143.258 120.333 145.925 122C148.592 123.667 151.692 125.2 155.225 126.6C158.825 127.933 163.125 128.6 168.125 128.6C175.792 128.6 181.725 126.8 185.925 123.2C190.125 119.533 192.225 114.3 192.225 107.5C192.225 103.7 191.258 100.6 189.325 98.2C187.458 95.8 184.958 93.8 181.825 92.2C178.692 90.5333 175.125 89.1333 171.125 88C167.125 86.8667 163.058 85.6333 158.925 84.3C154.792 82.9667 150.725 81.3667 146.725 79.5C142.725 77.6333 139.158 75.2 136.025 72.2C132.892 69.2 130.358 65.4667 128.425 61C126.558 56.4667 125.625 50.9 125.625 44.3C125.625 39.0333 126.658 33.9 128.725 28.9C130.858 23.9 133.925 19.4667 137.925 15.6C141.925 11.7333 146.858 8.63333 152.725 6.3C158.592 3.96666 165.325 2.8 172.925 2.8C181.458 2.8 189.325 4.13333 196.525 6.79999C203.725 9.46666 209.858 13.2 214.925 18L208.225 30.7Z"/>
</mask>
<path d="M97.2094 126C99.876 126 101.976 126.767 103.509 128.3C105.109 129.767 105.909 131.733 105.909 134.2V149H6.70938V140.8C6.70938 139.133 7.04271 137.4 7.70938 135.6C8.44271 133.733 9.57604 132.067 11.1094 130.6L55.0094 86.6C58.676 82.8667 61.9427 79.3 64.8094 75.9C67.7427 72.5 70.176 69.1333 72.1094 65.8C74.0427 62.4667 75.5094 59.1 76.5094 55.7C77.576 52.2333 78.1094 48.6 78.1094 44.8C78.1094 41.3333 77.6094 38.3 76.6094 35.7C75.6094 33.0333 74.176 30.8 72.3094 29C70.5094 27.2 68.3094 25.8667 65.7094 25C63.176 24.0667 60.3094 23.6 57.1094 23.6C54.176 23.6 51.4427 24.0333 48.9094 24.9C46.4427 25.7 44.2427 26.8667 42.3094 28.4C40.376 29.8667 38.7427 31.6 37.4094 33.6C36.076 35.6 35.076 37.8 34.4094 40.2C33.276 43.2667 31.8094 45.3 30.0094 46.3C28.2094 47.3 25.6094 47.5333 22.2094 47L9.20938 44.7C10.2094 37.7667 12.1427 31.7 15.0094 26.5C17.876 21.2333 21.4427 16.8667 25.7094 13.4C30.0427 9.86666 34.976 7.23333 40.5094 5.49999C46.1094 3.7 52.1094 2.8 58.5094 2.8C65.176 2.8 71.276 3.8 76.8094 5.8C82.3427 7.73332 87.076 10.5 91.0094 14.1C94.9427 17.7 98.0094 22.0333 100.209 27.1C102.409 32.1667 103.509 37.8 103.509 44C103.509 49.3333 102.709 54.2667 101.109 58.8C99.576 63.3333 97.476 67.6667 94.8094 71.8C92.2094 75.9333 89.1427 79.9333 85.6094 83.8C82.076 87.6667 78.376 91.6 74.5094 95.6L41.9094 128.9C45.0427 127.967 48.1427 127.267 51.2094 126.8C54.3427 126.267 57.3094 126 60.1094 126H97.2094ZM208.225 30.7C207.425 32.1 206.558 33.1333 205.625 33.8C204.758 34.4 203.658 34.7 202.325 34.7C200.925 34.7 199.392 34.2 197.725 33.2C196.125 32.1333 194.192 30.9667 191.925 29.7C189.658 28.4333 186.992 27.3 183.925 26.3C180.925 25.2333 177.358 24.7 173.225 24.7C169.492 24.7 166.225 25.1667 163.425 26.1C160.625 26.9667 158.258 28.2 156.325 29.8C154.458 31.4 153.058 33.3333 152.125 35.6C151.192 37.8 150.725 40.2333 150.725 42.9C150.725 46.3 151.658 49.1333 153.525 51.4C155.458 53.6667 157.992 55.6 161.125 57.2C164.258 58.8 167.825 60.2333 171.825 61.5C175.825 62.7667 179.925 64.1333 184.125 65.6C188.325 67 192.425 68.6667 196.425 70.6C200.425 72.4667 203.992 74.8667 207.125 77.8C210.258 80.6667 212.758 84.2 214.625 88.4C216.558 92.6 217.525 97.7 217.525 103.7C217.525 110.233 216.392 116.367 214.125 122.1C211.925 127.767 208.658 132.733 204.325 137C200.058 141.2 194.825 144.533 188.625 147C182.425 149.4 175.325 150.6 167.325 150.6C162.725 150.6 158.192 150.133 153.725 149.2C149.258 148.333 144.958 147.067 140.825 145.4C136.758 143.733 132.925 141.733 129.325 139.4C125.725 137.067 122.525 134.467 119.725 131.6L127.625 118.7C128.292 117.767 129.158 117 130.225 116.4C131.292 115.733 132.425 115.4 133.625 115.4C135.292 115.4 137.092 116.1 139.025 117.5C140.958 118.833 143.258 120.333 145.925 122C148.592 123.667 151.692 125.2 155.225 126.6C158.825 127.933 163.125 128.6 168.125 128.6C175.792 128.6 181.725 126.8 185.925 123.2C190.125 119.533 192.225 114.3 192.225 107.5C192.225 103.7 191.258 100.6 189.325 98.2C187.458 95.8 184.958 93.8 181.825 92.2C178.692 90.5333 175.125 89.1333 171.125 88C167.125 86.8667 163.058 85.6333 158.925 84.3C154.792 82.9667 150.725 81.3667 146.725 79.5C142.725 77.6333 139.158 75.2 136.025 72.2C132.892 69.2 130.358 65.4667 128.425 61C126.558 56.4667 125.625 50.9 125.625 44.3C125.625 39.0333 126.658 33.9 128.725 28.9C130.858 23.9 133.925 19.4667 137.925 15.6C141.925 11.7333 146.858 8.63333 152.725 6.3C158.592 3.96666 165.325 2.8 172.925 2.8C181.458 2.8 189.325 4.13333 196.525 6.79999C203.725 9.46666 209.858 13.2 214.925 18L208.225 30.7Z" fill="#AE2830"/>
<path d="M103.509 128.3L102.095 129.714L102.126 129.745L102.158 129.774L103.509 128.3ZM105.909 149V151H107.909V149H105.909ZM6.70938 149H4.70938V151H6.70938V149ZM7.70938 135.6L5.84787 134.869L5.8407 134.887L5.83388 134.905L7.70938 135.6ZM11.1094 130.6L12.4918 132.045L12.5087 132.029L12.5252 132.013L11.1094 130.6ZM55.0094 86.6L56.4252 88.0126L56.4308 88.007L56.4363 88.0014L55.0094 86.6ZM64.8094 75.9L63.2951 74.5935L63.2876 74.6021L63.2803 74.6108L64.8094 75.9ZM72.1094 65.8L70.3793 64.7966L70.3793 64.7966L72.1094 65.8ZM76.5094 55.7L74.5978 55.1118L74.5942 55.1237L74.5906 55.1357L76.5094 55.7ZM76.6094 35.7L74.7367 36.4022L74.7397 36.4101L74.7427 36.418L76.6094 35.7ZM72.3094 29L70.8952 30.4142L70.908 30.4271L70.9211 30.4397L72.3094 29ZM65.7094 25L65.018 26.8767L65.0473 26.8875L65.0769 26.8974L65.7094 25ZM48.9094 24.9L49.5264 26.8024L49.5416 26.7975L49.5568 26.7923L48.9094 24.9ZM42.3094 28.4L43.5182 29.9934L43.5353 29.9804L43.5522 29.967L42.3094 28.4ZM34.4094 40.2L36.2854 40.8933L36.3142 40.8153L36.3364 40.7353L34.4094 40.2ZM22.2094 47L21.8609 48.9694L21.8802 48.9728L21.8994 48.9758L22.2094 47ZM9.20938 44.7L7.22986 44.4145L6.95331 46.3319L8.86094 46.6694L9.20938 44.7ZM15.0094 26.5L16.7609 27.4656L16.766 27.4561L15.0094 26.5ZM25.7094 13.4L26.9706 14.9522L26.9733 14.95L25.7094 13.4ZM40.5094 5.49999L41.1072 7.40854L41.1143 7.40632L41.1214 7.40405L40.5094 5.49999ZM76.8094 5.8L76.1295 7.6809L76.1396 7.68454L76.1497 7.68807L76.8094 5.8ZM100.209 27.1L102.044 26.3034L102.044 26.3034L100.209 27.1ZM101.109 58.8L99.2234 58.1344L99.219 58.1467L99.2148 58.1592L101.109 58.8ZM94.8094 71.8L93.1288 70.7157L93.1226 70.7254L93.1165 70.7351L94.8094 71.8ZM85.6094 83.8L87.0858 85.1491L87.0858 85.1491L85.6094 83.8ZM74.5094 95.6L75.9386 96.9991L75.9474 96.99L74.5094 95.6ZM41.9094 128.9L40.4802 127.501L35.0744 133.023L42.4803 130.817L41.9094 128.9ZM51.2094 126.8L51.5103 128.777L51.5276 128.775L51.545 128.772L51.2094 126.8ZM97.2094 128C99.475 128 101.019 128.639 102.095 129.714L104.924 126.886C102.933 124.895 100.277 124 97.2094 124V128ZM102.158 129.774C103.286 130.809 103.909 132.21 103.909 134.2H107.909C107.909 131.257 106.932 128.725 104.861 126.826L102.158 129.774ZM103.909 134.2V149H107.909V134.2H103.909ZM105.909 147H6.70938V151H105.909V147ZM8.70938 149V140.8H4.70938V149H8.70938ZM8.70938 140.8C8.70938 139.403 8.98824 137.906 9.58487 136.295L5.83388 134.905C5.09717 136.894 4.70938 138.863 4.70938 140.8H8.70938ZM9.57088 136.331C10.1921 134.75 11.1556 133.323 12.4918 132.045L9.72693 129.155C7.99645 130.81 6.69335 132.717 5.84787 134.869L9.57088 136.331ZM12.5252 132.013L56.4252 88.0126L53.5936 85.1874L9.69355 129.187L12.5252 132.013ZM56.4363 88.0014C60.1324 84.2381 63.4341 80.6339 66.3384 77.1892L63.2803 74.6108C60.4514 77.9661 57.2197 81.4952 53.5825 85.1986L56.4363 88.0014ZM66.3237 77.2065C69.3252 73.7274 71.8345 70.2601 73.8394 66.8034L70.3793 64.7966C68.5175 68.0065 66.1602 71.2726 63.2951 74.5935L66.3237 77.2065ZM73.8394 66.8034C75.8461 63.3437 77.3793 59.8304 78.4281 56.2643L74.5906 55.1357C73.6395 58.3696 72.2394 61.5896 70.3793 64.7966L73.8394 66.8034ZM78.4209 56.2882C79.549 52.622 80.1094 48.7898 80.1094 44.8H76.1094C76.1094 48.4102 75.6031 51.8446 74.5978 55.1118L78.4209 56.2882ZM80.1094 44.8C80.1094 41.1457 79.5828 37.8595 78.4761 34.982L74.7427 36.418C75.636 38.7404 76.1094 41.521 76.1094 44.8H80.1094ZM78.482 34.9978C77.3879 32.08 75.799 29.5866 73.6977 27.5603L70.9211 30.4397C72.5531 32.0134 73.8309 33.9866 74.7367 36.4022L78.482 34.9978ZM73.7236 27.5858C71.6875 25.5497 69.2133 24.0598 66.3418 23.1026L65.0769 26.8974C67.4054 27.6735 69.3313 28.8503 70.8952 30.4142L73.7236 27.5858ZM66.4008 23.1233C63.6093 22.0949 60.5026 21.6 57.1094 21.6V25.6C60.1161 25.6 62.7428 26.0385 65.018 26.8767L66.4008 23.1233ZM57.1094 21.6C53.9768 21.6 51.0227 22.0632 48.262 23.0077L49.5568 26.7923C51.8627 26.0034 54.3753 25.6 57.1094 25.6V21.6ZM48.2924 22.9975C45.6105 23.8674 43.1962 25.144 41.0666 26.833L43.5522 29.967C45.2892 28.5893 47.275 27.5326 49.5264 26.8024L48.2924 22.9975ZM41.1006 26.8066C38.9913 28.4068 37.2035 30.3032 35.7453 32.4906L39.0735 34.7094C40.2819 32.8968 41.7608 31.3265 43.5182 29.9934L41.1006 26.8066ZM35.7453 32.4906C34.2902 34.6732 33.2036 37.0681 32.4823 39.6647L36.3364 40.7353C36.9485 38.5319 37.8619 36.5268 39.0735 34.7094L35.7453 32.4906ZM32.5334 39.5067C31.4738 42.3739 30.2353 43.8866 29.0381 44.5517L30.9807 48.0483C33.3835 46.7134 35.0783 44.1594 36.2854 40.8933L32.5334 39.5067ZM29.0381 44.5517C27.8136 45.232 25.7489 45.5308 22.5193 45.0242L21.8994 48.9758C25.4698 49.5359 28.6052 49.368 30.9807 48.0483L29.0381 44.5517ZM22.5578 45.0306L9.55781 42.7306L8.86094 46.6694L21.8609 48.9694L22.5578 45.0306ZM11.1889 44.9855C12.1605 38.2488 14.0294 32.4203 16.7609 27.4656L13.2579 25.5344C10.256 30.9797 8.25821 37.2846 7.22986 44.4145L11.1889 44.9855ZM16.766 27.4561C19.5194 22.3977 22.924 18.24 26.9706 14.9522L24.4482 11.8478C19.9614 15.4933 16.2327 20.069 13.2527 25.5439L16.766 27.4561ZM26.9733 14.95C31.1021 11.5834 35.8075 9.06869 41.1072 7.40854L39.9115 3.59144C34.1446 5.39796 28.9833 8.14989 24.4455 11.85L26.9733 14.95ZM41.1214 7.40405C46.507 5.67297 52.2989 4.8 58.5094 4.8V0.799999C51.9198 0.799999 45.7118 1.72702 39.8974 3.59594L41.1214 7.40405ZM58.5094 4.8C64.9747 4.8 70.8412 5.76944 76.1295 7.6809L77.4892 3.91909C71.7109 1.83055 65.3773 0.799999 58.5094 0.799999V4.8ZM76.1497 7.68807C81.4528 9.54095 85.9446 12.1757 89.6591 15.5753L92.3597 12.6246C88.2074 8.82428 83.2326 5.9257 77.4691 3.91192L76.1497 7.68807ZM89.6591 15.5753C93.3776 18.9787 96.2827 23.0782 98.3749 27.8966L102.044 26.3034C99.7361 20.9885 96.5078 16.4212 92.3597 12.6246L89.6591 15.5753ZM98.3749 27.8966C100.453 32.6828 101.509 38.0405 101.509 44H105.509C105.509 37.5595 104.366 31.6505 102.044 26.3034L98.3749 27.8966ZM101.509 44C101.509 49.1312 100.74 53.8369 99.2234 58.1344L102.995 59.4656C104.679 54.6964 105.509 49.5354 105.509 44H101.509ZM99.2148 58.1592C97.7357 62.5321 95.7086 66.717 93.1288 70.7157L96.49 72.8843C99.2435 68.6164 101.416 64.1345 103.004 59.4408L99.2148 58.1592ZM93.1165 70.7351C90.5844 74.7604 87.5916 78.666 84.133 82.4509L87.0858 85.1491C90.6939 81.2007 93.8344 77.1062 96.5023 72.8649L93.1165 70.7351ZM84.133 82.4509C80.613 86.3029 76.9259 90.2226 73.0714 94.21L75.9474 96.99C79.8262 92.9774 83.5391 89.0304 87.0858 85.1491L84.133 82.4509ZM73.0802 94.2009L40.4802 127.501L43.3385 130.299L75.9385 96.9991L73.0802 94.2009ZM42.4803 130.817C45.5299 129.908 48.5397 129.229 51.5103 128.777L50.9085 124.823C47.7458 125.304 44.5555 126.025 41.3384 126.983L42.4803 130.817ZM51.545 128.772C54.582 128.255 57.4357 128 60.1094 128V124C57.1831 124 54.1034 124.279 50.8738 124.828L51.545 128.772ZM60.1094 128H97.2094V124H60.1094V128ZM208.225 30.7L209.961 31.6923L209.978 31.663L209.994 31.6332L208.225 30.7ZM205.625 33.8L206.763 35.4444L206.776 35.436L206.787 35.4275L205.625 33.8ZM197.725 33.2L196.616 34.8641L196.655 34.8905L196.696 34.915L197.725 33.2ZM191.925 29.7L192.901 27.9541L192.901 27.9541L191.925 29.7ZM183.925 26.3L183.255 28.1844L183.28 28.1933L183.305 28.2014L183.925 26.3ZM163.425 26.1L164.016 28.0106L164.037 28.0042L164.057 27.9974L163.425 26.1ZM156.325 29.8L155.05 28.2592L155.037 28.2702L155.023 28.2815L156.325 29.8ZM152.125 35.6L153.966 36.3811L153.97 36.3713L153.974 36.3615L152.125 35.6ZM153.525 51.4L151.981 52.6714L151.992 52.6847L152.003 52.6979L153.525 51.4ZM161.125 57.2L160.215 58.9812L160.215 58.9812L161.125 57.2ZM184.125 65.6L183.466 67.4882L183.479 67.4929L183.493 67.4974L184.125 65.6ZM196.425 70.6L195.555 72.4007L195.567 72.4066L195.579 72.4124L196.425 70.6ZM207.125 77.8L205.758 79.26L205.767 79.2679L205.775 79.2756L207.125 77.8ZM214.625 88.4L212.797 89.2123L212.803 89.2243L212.808 89.2363L214.625 88.4ZM214.125 122.1L212.265 121.365L212.261 121.376L214.125 122.1ZM204.325 137L205.728 138.425L205.728 138.425L204.325 137ZM188.625 147L189.347 148.865L189.356 148.862L189.364 148.858L188.625 147ZM153.725 149.2L154.134 147.242L154.12 147.239L154.106 147.237L153.725 149.2ZM140.825 145.4L140.067 147.251L140.077 147.255L140.825 145.4ZM129.325 139.4L128.237 141.078L128.237 141.078L129.325 139.4ZM119.725 131.6L118.019 130.555L117.206 131.883L118.294 132.997L119.725 131.6ZM127.625 118.7L125.998 117.538L125.956 117.595L125.919 117.655L127.625 118.7ZM130.225 116.4L131.206 118.143L131.246 118.12L131.285 118.096L130.225 116.4ZM139.025 117.5L137.852 119.12L137.871 119.133L137.89 119.146L139.025 117.5ZM145.925 122L146.985 120.304L146.985 120.304L145.925 122ZM155.225 126.6L154.488 128.459L154.509 128.468L154.53 128.475L155.225 126.6ZM185.925 123.2L187.227 124.719L187.233 124.713L187.24 124.707L185.925 123.2ZM189.325 98.2L187.746 99.4279L187.757 99.4414L187.767 99.4547L189.325 98.2ZM181.825 92.2L180.886 93.9657L180.901 93.9736L180.915 93.9812L181.825 92.2ZM171.125 88L170.58 89.9243L170.58 89.9243L171.125 88ZM158.925 84.3L158.311 86.2034L158.311 86.2034L158.925 84.3ZM146.725 79.5L145.879 81.3124L146.725 79.5ZM136.025 72.2L134.642 73.6446L134.642 73.6446L136.025 72.2ZM128.425 61L126.576 61.7615L126.582 61.778L126.59 61.7944L128.425 61ZM128.725 28.9L126.885 28.1151L126.881 28.1255L126.877 28.136L128.725 28.9ZM137.925 15.6L136.535 14.162L136.535 14.162L137.925 15.6ZM196.525 6.79999L195.83 8.67549L195.83 8.67549L196.525 6.79999ZM214.925 18L216.694 18.9332L217.402 17.5914L216.3 16.5481L214.925 18ZM206.489 29.7077C205.778 30.952 205.086 31.7273 204.463 32.1725L206.787 35.4275C208.031 34.5393 209.072 33.248 209.961 31.6923L206.489 29.7077ZM204.487 32.1556C204.033 32.4694 203.359 32.7 202.325 32.7V36.7C203.957 36.7 205.483 36.3306 206.763 35.4444L204.487 32.1556ZM202.325 32.7C201.402 32.7 200.225 32.3678 198.754 31.485L196.696 34.915C198.558 36.0322 200.448 36.7 202.325 36.7V32.7ZM198.834 31.5359C197.179 30.4322 195.198 29.2381 192.901 27.9541L190.949 31.4459C193.185 32.6952 195.071 33.8344 196.616 34.8641L198.834 31.5359ZM192.901 27.9541C190.497 26.6112 187.707 25.4295 184.545 24.3985L183.305 28.2014C186.277 29.1705 188.819 30.2555 190.949 31.4459L192.901 27.9541ZM184.595 24.4156C181.327 23.2534 177.522 22.7 173.225 22.7V26.7C177.195 26.7 180.523 27.2132 183.255 28.1844L184.595 24.4156ZM173.225 22.7C169.331 22.7 165.842 23.1861 162.793 24.2026L164.057 27.9974C166.608 27.1473 169.652 26.7 173.225 26.7V22.7ZM162.834 24.1894C159.825 25.1206 157.216 26.4668 155.05 28.2592L157.6 31.3408C159.301 29.9331 161.425 28.8127 164.016 28.0106L162.834 24.1894ZM155.023 28.2815C152.918 30.0864 151.33 32.2789 150.276 34.8385L153.974 36.3615C154.787 34.3878 155.999 32.7136 157.627 31.3185L155.023 28.2815ZM150.284 34.8189C149.234 37.2931 148.725 39.9961 148.725 42.9H152.725C152.725 40.4706 153.149 38.3069 153.966 36.3811L150.284 34.8189ZM148.725 42.9C148.725 46.6868 149.774 49.9914 151.981 52.6714L155.069 50.1286C153.543 48.2753 152.725 45.9132 152.725 42.9H148.725ZM152.003 52.6979C154.135 55.197 156.89 57.2831 160.215 58.9812L162.035 55.4188C159.093 53.9169 156.782 52.1364 155.047 50.1021L152.003 52.6979ZM160.215 58.9812C163.464 60.6399 167.135 62.1128 171.221 63.4067L172.429 59.5933C168.515 58.3538 165.053 56.9601 162.035 55.4188L160.215 58.9812ZM171.221 63.4067C175.202 64.6671 179.283 66.0276 183.466 67.4882L184.784 63.7118C180.567 62.2391 176.448 60.8662 172.429 59.5933L171.221 63.4067ZM183.493 67.4974C187.611 68.8702 191.632 70.5045 195.555 72.4007L197.295 68.7993C193.218 66.8288 189.039 65.1298 184.757 63.7026L183.493 67.4974ZM195.579 72.4124C199.394 74.1924 202.783 76.475 205.758 79.26L208.492 76.34C205.2 73.2583 201.456 70.741 197.271 68.7876L195.579 72.4124ZM205.775 79.2756C208.689 81.9415 211.033 85.243 212.797 89.2123L216.453 87.5877C214.483 83.157 211.828 79.3918 208.475 76.3244L205.775 79.2756ZM212.808 89.2363C214.591 93.1082 215.525 97.9062 215.525 103.7H219.525C219.525 97.4938 218.526 92.0918 216.442 87.5637L212.808 89.2363ZM215.525 103.7C215.525 109.997 214.434 115.879 212.265 121.365L215.985 122.835C218.35 116.854 219.525 110.47 219.525 103.7H215.525ZM212.261 121.376C210.163 126.779 207.054 131.507 202.922 135.575L205.728 138.425C210.263 133.96 213.687 128.754 215.989 122.824L212.261 121.376ZM202.922 135.575C198.866 139.567 193.866 142.762 187.886 145.142L189.364 148.858C195.784 146.304 201.251 142.833 205.728 138.425L202.922 135.575ZM187.903 145.135C181.975 147.43 175.127 148.6 167.325 148.6V152.6C175.523 152.6 182.875 151.37 189.347 148.865L187.903 145.135ZM167.325 148.6C162.861 148.6 158.465 148.147 154.134 147.242L153.316 151.158C157.918 152.119 162.589 152.6 167.325 152.6V148.6ZM154.106 147.237C149.762 146.394 145.585 145.163 141.573 143.545L140.077 147.255C144.331 148.97 148.754 150.273 153.344 151.163L154.106 147.237ZM141.583 143.549C137.629 141.929 133.906 139.986 130.413 137.722L128.237 141.078C131.944 143.481 135.888 145.538 140.067 147.251L141.583 143.549ZM130.413 137.722C126.928 135.463 123.845 132.956 121.156 130.203L118.294 132.997C121.205 135.977 124.522 138.67 128.237 141.078L130.413 137.722ZM121.431 132.645L129.331 119.745L125.919 117.655L118.019 130.555L121.431 132.645ZM129.252 119.862C129.737 119.184 130.377 118.609 131.206 118.143L129.244 114.657C127.94 115.391 126.846 116.35 125.998 117.538L129.252 119.862ZM131.285 118.096C132.05 117.618 132.818 117.4 133.625 117.4V113.4C132.032 113.4 130.533 113.849 129.165 114.704L131.285 118.096ZM133.625 117.4C134.724 117.4 136.118 117.864 137.852 119.12L140.198 115.88C138.066 114.336 135.86 113.4 133.625 113.4V117.4ZM137.89 119.146C139.854 120.501 142.181 122.018 144.865 123.696L146.985 120.304C144.336 118.648 142.062 117.165 140.16 115.854L137.89 119.146ZM144.865 123.696C147.653 125.438 150.865 127.024 154.488 128.459L155.962 124.741C152.518 123.376 149.53 121.895 146.985 120.304L144.865 123.696ZM154.53 128.475C158.409 129.912 162.956 130.6 168.125 130.6V126.6C163.294 126.6 159.241 125.955 155.92 124.725L154.53 128.475ZM168.125 130.6C176.086 130.6 182.546 128.731 187.227 124.719L184.623 121.681C180.904 124.869 175.498 126.6 168.125 126.6V130.6ZM187.24 124.707C191.97 120.578 194.225 114.739 194.225 107.5H190.225C190.225 113.861 188.28 118.489 184.61 121.693L187.24 124.707ZM194.225 107.5C194.225 103.353 193.164 99.7776 190.883 96.9453L187.767 99.4547C189.353 101.422 190.225 104.047 190.225 107.5H194.225ZM190.904 96.9721C188.831 94.3072 186.088 92.1311 182.735 90.4188L180.915 93.9812C183.829 95.4688 186.086 97.2928 187.746 99.4279L190.904 96.9721ZM182.764 90.4343C179.486 88.6907 175.784 87.2414 171.67 86.0757L170.58 89.9243C174.466 91.0253 177.897 92.3759 180.886 93.9657L182.764 90.4343ZM171.67 86.0757C167.694 84.9492 163.651 83.7229 159.539 82.3966L158.311 86.2034C162.466 87.5438 166.556 88.7841 170.58 89.9243L171.67 86.0757ZM159.539 82.3966C155.486 81.0892 151.497 79.5197 147.571 77.6876L145.879 81.3124C149.953 83.2136 154.097 84.8442 158.311 86.2034L159.539 82.3966ZM147.571 77.6876C143.765 75.9117 140.381 73.6016 137.408 70.7554L134.642 73.6446C137.936 76.7984 141.685 79.3549 145.879 81.3124L147.571 77.6876ZM137.408 70.7554C134.49 67.961 132.101 64.4573 130.26 60.2055L126.59 61.7944C128.616 66.476 131.294 70.439 134.642 73.6446L137.408 70.7554ZM130.274 60.2385C128.535 56.0147 127.625 50.7239 127.625 44.3H123.625C123.625 51.0761 124.582 56.9187 126.576 61.7615L130.274 60.2385ZM127.625 44.3C127.625 39.3027 128.604 34.4285 130.573 29.664L126.877 28.136C124.713 33.3715 123.625 38.764 123.625 44.3H127.625ZM130.565 29.6849C132.591 24.9362 135.502 20.7236 139.315 17.038L136.535 14.162C132.348 18.2098 129.126 22.8638 126.885 28.1151L130.565 29.6849ZM139.315 17.038C143.104 13.3754 147.807 10.4083 153.464 8.1584L151.986 4.44159C145.909 6.85836 140.746 10.0913 136.535 14.162L139.315 17.038ZM153.464 8.1584C159.053 5.93556 165.528 4.8 172.925 4.8V0.799999C165.122 0.799999 158.13 1.99777 151.986 4.44159L153.464 8.1584ZM172.925 4.8C181.248 4.8 188.876 6.09984 195.83 8.67549L197.22 4.9245C189.774 2.16682 181.669 0.799999 172.925 0.799999V4.8ZM195.83 8.67549C202.803 11.2578 208.698 14.8554 213.55 19.4519L216.3 16.5481C211.019 11.5446 204.647 7.67551 197.22 4.9245L195.83 8.67549ZM213.156 17.0668L206.456 29.7668L209.994 31.6332L216.694 18.9332L213.156 17.0668Z" fill="#AE2830" mask="url(#path-1-outside-1_81_5)"/>
</g>
<defs>
<filter id="filter0_di_81_5" x="0.709473" y="0.799805" width="222.815" height="159.8" filterUnits="userSpaceOnUse" color-interpolation-filters="sRGB">
<feFlood flood-opacity="0" result="BackgroundImageFix"/>
<feColorMatrix in="SourceAlpha" type="matrix" values="0 0 0 0 0 0 0 0 0 0 0 0 0 0 0 0 0 0 127 0" result="hardAlpha"/>
<feOffset dy="4"/>
<feGaussianBlur stdDeviation="2"/>
<feComposite in2="hardAlpha" operator="out"/>
<feColorMatrix type="matrix" values="0 0 0 0 0 0 0 0 0 0 0 0 0 0 0 0 0 0 0.25 0"/>
<feBlend mode="normal" in2="BackgroundImageFix" result="effect1_dropShadow_81_5"/>
<feBlend mode="normal" in="SourceGraphic" in2="effect1_dropShadow_81_5" result="shape"/>
<feColorMatrix in="SourceAlpha" type="matrix" values="0 0 0 0 0 0 0 0 0 0 0 0 0 0 0 0 0 0 127 0" result="hardAlpha"/>
<feOffset dx="4" dy="4"/>
<feGaussianBlur stdDeviation="2"/>
<feComposite in2="hardAlpha" operator="arithmetic" k2="-1" k3="1"/>
<feColorMatrix type="matrix" values="0 0 0 0 0 0 0 0 0 0 0 0 0 0 0 0 0 0 0.3 0"/>
<feBlend mode="normal" in2="shape" result="effect2_innerShadow_81_5"/>
</filter>
</defs>
</svg>
